<?xml version="1.0" encoding="UTF-8"?>
<svg width="24px" height="24px" viewBox="0 0 24 24" version="1.1" xmlns="http://www.w3.org/2000/svg" xmlns:xlink="http://www.w3.org/1999/xlink">
    <!-- Generator: Sketch 54.1 (76490) - https://sketchapp.com -->
    <title></title>
    <desc>Created with Sketch.</desc>
    <g id="basics/icon/common/analyze" stroke="none" stroke-width="1" fill="none" fill-rule="evenodd">
        <g id="@icon/common/analyze">
            <rect id="Rectangle" x="0" y="0" width="24" height="24"></rect>
            <g id="fill" transform="translate(2.000000, 2.000000)" fill="#333333" fill-rule="nonzero">
                <path d="M12.9675224,10.1941059 L16.0815709,6.1031009 C15.7185251,5.66910951 15.5,5.11007439 15.5,4.5 C15.5,3.11928813 16.6192881,2 18,2 C19.3807119,2 20.5,3.11928813 20.5,4.5 C20.5,5.88071187 19.3807119,7 18,7 C17.7748469,7 17.5566456,6.97023599 17.3491161,6.91442796 L14.1138717,11.164651 C14.3584272,11.5509745 14.5,12.0089542 14.5,12.5 C14.5,13.8807119 13.3807119,15 12,15 C10.6192881,15 9.5,13.8807119 9.5,12.5 C9.5,12.1689808 9.56433423,11.8529877 9.6811813,11.563842 L7.75543672,10.2800123 C7.30403356,10.7252218 6.68410572,11 6,11 C5.6159511,11 5.25212829,10.9134018 4.92699316,10.758667 L1.53033009,14.1553301 C1.52042355,14.1652366 1.51030883,14.1748081 1.5,14.1840445 L1.5,18.5 L19.25,18.5 C19.6642136,18.5 20,18.8357864 20,19.25 C20,19.6642136 19.6642136,20 19.25,20 L1.5,20 L0,20 L0,0.75 C-5.07265313e-17,0.335786438 0.335786438,7.6089797e-17 0.75,0 C1.16421356,-7.6089797e-17 1.5,0.335786438 1.5,0.75 L1.5,12.0643398 L3.82711542,9.73722441 C3.61894454,9.37240939 3.5,8.95009519 3.5,8.5 C3.5,7.11928813 4.61928813,6 6,6 C7.38071187,6 8.5,7.11928813 8.5,8.5 C8.5,8.65259303 8.48632885,8.801993 8.46014455,8.94704188 L10.6412594,10.4011185 C11.0324312,10.1473673 11.4990059,10 12,10 C12.3430287,10 12.6699212,10.0690871 12.9675224,10.1941059 Z M6,9.5 C6.55228475,9.5 7,9.05228475 7,8.5 C7,7.94771525 6.55228475,7.5 6,7.5 C5.44771525,7.5 5,7.94771525 5,8.5 C5,9.05228475 5.44771525,9.5 6,9.5 Z M12,13.5 C12.5522847,13.5 13,13.0522847 13,12.5 C13,11.9477153 12.5522847,11.5 12,11.5 C11.4477153,11.5 11,11.9477153 11,12.5 C11,13.0522847 11.4477153,13.5 12,13.5 Z M18,5.5 C18.5522847,5.5 19,5.05228475 19,4.5 C19,3.94771525 18.5522847,3.5 18,3.5 C17.4477153,3.5 17,3.94771525 17,4.5 C17,5.05228475 17.4477153,5.5 18,5.5 Z" id="Combined-Shape"></path>
            </g>
        </g>
    </g>
</svg>