<?xml version="1.0" encoding="UTF-8"?>
<svg width="24px" height="24px" viewBox="0 0 24 24" version="1.1" xmlns="http://www.w3.org/2000/svg" xmlns:xlink="http://www.w3.org/1999/xlink">
    <!-- Generator: Sketch 54.1 (76490) - https://sketchapp.com -->
    <title></title>
    <desc>Created with Sketch.</desc>
    <g id="basics/icon/common/checkBox-all" stroke="none" stroke-width="1" fill="none" fill-rule="evenodd">
        <g id="@icon/common/checkBox-all">
            <rect id="Rectangle" x="0" y="0" width="24" height="24"></rect>
            <g id="outline" transform="translate(2.000000, 2.000000)">
                <path d="M17.5,20 L2.5,20 C1.125,20 0,18.875 0,17.5 L0,2.5 C0,1.125 1.125,0 2.5,0 L17.5,0 C18.875,0 20,1.125 20,2.5 L20,17.5 C20,18.875 18.875,20 17.5,20" id="Fill-1" fill="#00A85F" fill-rule="nonzero"></path>
                <path d="M3,10 L17,10" id="Stroke-3" stroke="#FFFFFF" stroke-width="1.5"></path>
            </g>
            <g id="fill" transform="translate(2.000000, 2.000000)" fill-rule="nonzero">
                <path d="M17.5,20 L2.5,20 C1.125,20 0,18.875 0,17.5 L0,2.5 C0,1.125 1.125,0 2.5,0 L17.5,0 C18.875,0 20,1.125 20,2.5 L20,17.5 C20,18.875 18.875,20 17.5,20" id="Fill-1"></path>
                <polygon id="Stroke-3" fill="#FFFFFF" points="3 10.75 3 9.25 17 9.25 17 10.75"></polygon>
            </g>
        </g>
    </g>
</svg>