<?xml version="1.0" encoding="UTF-8"?>
<svg width="24px" height="24px" viewBox="0 0 24 24" version="1.1" xmlns="http://www.w3.org/2000/svg" xmlns:xlink="http://www.w3.org/1999/xlink">
    <!-- Generator: Sketch 54.1 (76490) - https://sketchapp.com -->
    <title></title>
    <desc>Created with Sketch.</desc>
    <g id="basics/icon/common/company" stroke="none" stroke-width="1" fill="none" fill-rule="evenodd">
        <g id="@icon/common/company">
            <rect id="Rectangle" x="0" y="0" width="24" height="24"></rect>
            <g id="fill" transform="translate(2.000000, 2.000000)" fill="#333333" fill-rule="nonzero">
                <path d="M11.75,18.25 L11.75,14.5 C11.75,13.8097864 12.3097864,13.25 13,13.25 L15.5,13.25 C16.1902136,13.25 16.75,13.8097864 16.75,14.5 L16.75,18.25 L17.721,18.25 L17.721,1.75 L10.75,1.75 L10.75,7.353 L10.75,18.25 L11.75,18.25 Z M9.25,6.603 L9.25,1 C9.25,0.585786438 9.58578644,0.25 10,0.25 L18.471,0.25 C18.8852136,0.25 19.221,0.585786438 19.221,1 L19.221,19 C19.221,19.4142136 18.8852136,19.75 18.471,19.75 L10,19.75 L1.529,19.75 C1.11478644,19.75 0.779,19.4142136 0.779,19 L0.779,7.353 C0.779,6.93878644 1.11478644,6.603 1.529,6.603 L9.25,6.603 Z M9.25,8.103 L2.279,8.103 L2.279,18.25 L9.25,18.25 L9.25,8.103 Z M15.25,18 L15.25,14.75 L13.25,14.75 L13.25,18 L15.25,18 Z M5.25,10.4375 C5.25,10.9895 4.803,11.4375 4.25,11.4375 C3.697,11.4375 3.25,10.9895 3.25,10.4375 C3.25,9.8855 3.697,9.4375 4.25,9.4375 C4.803,9.4375 5.25,9.8855 5.25,10.4375 Z M8.25,10.4375 C8.25,10.9895 7.803,11.4375 7.25,11.4375 C6.697,11.4375 6.25,10.9895 6.25,10.4375 C6.25,9.8855 6.697,9.4375 7.25,9.4375 C7.803,9.4375 8.25,9.8855 8.25,10.4375 Z M5.25,13.3125 C5.25,13.8645 4.803,14.3125 4.25,14.3125 C3.697,14.3125 3.25,13.8645 3.25,13.3125 C3.25,12.7605 3.697,12.3125 4.25,12.3125 C4.803,12.3125 5.25,12.7605 5.25,13.3125 Z M8.25,13.3125 C8.25,13.8645 7.803,14.3125 7.25,14.3125 C6.697,14.3125 6.25,13.8645 6.25,13.3125 C6.25,12.7605 6.697,12.3125 7.25,12.3125 C7.803,12.3125 8.25,12.7605 8.25,13.3125 Z M5.25,16.0625 C5.25,16.6145 4.803,17.0625 4.25,17.0625 C3.697,17.0625 3.25,16.6145 3.25,16.0625 C3.25,15.5105 3.697,15.0625 4.25,15.0625 C4.803,15.0625 5.25,15.5105 5.25,16.0625 Z M8.25,16.0625 C8.25,16.6145 7.803,17.0625 7.25,17.0625 C6.697,17.0625 6.25,16.6145 6.25,16.0625 C6.25,15.5105 6.697,15.0625 7.25,15.0625 C7.803,15.0625 8.25,15.5105 8.25,16.0625 Z M13.75,4.625 C13.75,5.177 13.303,5.625 12.75,5.625 C12.197,5.625 11.75,5.177 11.75,4.625 C11.75,4.073 12.197,3.625 12.75,3.625 C13.303,3.625 13.75,4.073 13.75,4.625 Z M16.75,4.625 C16.75,5.177 16.303,5.625 15.75,5.625 C15.197,5.625 14.75,5.177 14.75,4.625 C14.75,4.073 15.197,3.625 15.75,3.625 C16.303,3.625 16.75,4.073 16.75,4.625 Z M13.75,7.5 C13.75,8.052 13.303,8.5 12.75,8.5 C12.197,8.5 11.75,8.052 11.75,7.5 C11.75,6.948 12.197,6.5 12.75,6.5 C13.303,6.5 13.75,6.948 13.75,7.5 Z M16.75,7.5 C16.75,8.052 16.303,8.5 15.75,8.5 C15.197,8.5 14.75,8.052 14.75,7.5 C14.75,6.948 15.197,6.5 15.75,6.5 C16.303,6.5 16.75,6.948 16.75,7.5 Z M13.75,10.4375 C13.75,10.9895 13.303,11.4375 12.75,11.4375 C12.197,11.4375 11.75,10.9895 11.75,10.4375 C11.75,9.8855 12.197,9.4375 12.75,9.4375 C13.303,9.4375 13.75,9.8855 13.75,10.4375 Z M16.75,10.4375 C16.75,10.9895 16.303,11.4375 15.75,11.4375 C15.197,11.4375 14.75,10.9895 14.75,10.4375 C14.75,9.8855 15.197,9.4375 15.75,9.4375 C16.303,9.4375 16.75,9.8855 16.75,10.4375 Z" id="Combined-Shape"></path>
            </g>
        </g>
    </g>
</svg>