<?xml version="1.0" encoding="UTF-8"?>
<svg width="24px" height="24px" viewBox="0 0 24 24" version="1.1" xmlns="http://www.w3.org/2000/svg" xmlns:xlink="http://www.w3.org/1999/xlink">
    <!-- Generator: Sketch 57.1 (83088) - https://sketch.com -->
    <title></title>
    <desc>Created with Sketch.</desc>
    <g id="basics/icon/common/display" stroke="none" stroke-width="1" fill="none" fill-rule="evenodd">
        <g id="@icon/common/display">
            <rect id="Rectangle" x="0" y="0" width="24" height="24"></rect>
            <g id="fill" transform="translate(2.000000, 5.000000)" fill="#333333" fill-rule="nonzero">
                <path d="M10,0 C13.6818983,0 17.0152317,2.33333333 20,7 C17.0152317,11.6666667 13.6818983,14 10,14 C6.31810167,14 2.98476833,11.6666667 0,7 C2.98476833,2.33333333 6.31810167,0 10,0 Z M10,1.5 C7.10475037,1.5 4.37767869,3.27671072 1.80103001,7 C4.37767869,10.7232893 7.10475037,12.5 10,12.5 C12.8952496,12.5 15.6223213,10.7232893 18.19897,7 C15.6223213,3.27671072 12.8952496,1.5 10,1.5 Z M10,4 C11.6568542,4 13,5.34314575 13,7 C13,8.65685425 11.6568542,10 10,10 C8.34314575,10 7,8.65685425 7,7 C7,5.34314575 8.34314575,4 10,4 Z M10,5.5 C9.17157288,5.5 8.5,6.17157288 8.5,7 C8.5,7.82842712 9.17157288,8.5 10,8.5 C10.8284271,8.5 11.5,7.82842712 11.5,7 C11.5,6.17157288 10.8284271,5.5 10,5.5 Z" id="Combined-Shape"></path>
            </g>
        </g>
    </g>
</svg>