<?xml version="1.0" encoding="UTF-8"?>
<svg width="24px" height="24px" viewBox="0 0 24 24" version="1.1" xmlns="http://www.w3.org/2000/svg" xmlns:xlink="http://www.w3.org/1999/xlink">
    <!-- Generator: Sketch 54.1 (76490) - https://sketchapp.com -->
    <title></title>
    <desc>Created with Sketch.</desc>
    <g id="basics/icon/common/event" stroke="none" stroke-width="1" fill="none" fill-rule="evenodd">
        <g id="@icon/common/event">
            <rect id="Rectangle" x="0" y="0" width="24" height="24"></rect>
            <g id="fill" transform="translate(3.000000, 3.000000)" fill="#333333" fill-rule="nonzero">
                <path d="M12.25,3 L5.75,3 L5.75,4.75 L4.25,4.75 L4.25,3 L1.506,3 L1.50477778,5.75 L16.4987778,5.75 L16.5,3 L13.75,3 L13.75,4.75 L12.25,4.75 L12.25,3 Z M13.75,1.5 L16.875,1.5 C17.496,1.5 18,2.116 18,2.875 L18,16.625 C18,17.384 17.496,18 16.875,18 L1.125,18 C0.504,18 0,17.384 0,16.625 L0,2.875 C0,2.116 0.504,1.5 1.125,1.5 L4.25,1.5 L4.25,0.25 L5.75,0.25 L5.75,1.5 L12.25,1.5 L12.25,0.25 L13.75,0.25 L13.75,1.5 Z M16.4981111,7.25 L1.50411111,7.25 L1.5,16.5 L16.494,16.5 L16.4981111,7.25 Z M9,13.72 L7.73306518,14.5369477 C7.50098783,14.6865964 7.19153777,14.6197747 7.04188914,14.3876973 C6.9657059,14.2695512 6.94277831,14.1247921 6.97872372,13.9888866 L7.36418279,12.5315092 L6.19571494,11.5790333 C5.98167478,11.4045586 5.94960065,11.0896051 6.12407536,10.875565 C6.21289707,10.7666012 6.34348614,10.7000628 6.48384774,10.6922518 L7.98900937,10.6084908 L8.53379134,9.20288057 C8.6335846,8.94540063 8.92321175,8.81757033 9.18069168,8.91736359 C9.31176976,8.96816642 9.41540583,9.07180249 9.46620866,9.20288057 L10.0109906,10.6084908 L11.5161523,10.6922518 C11.791868,10.7075951 12.0029416,10.9435452 11.9875982,11.219261 C11.9797872,11.3596226 11.9132488,11.4902116 11.8042851,11.5790333 L10.6358172,12.5315092 L11.0212763,13.9888866 C11.0918847,14.2558492 10.9327082,14.5295047 10.6657456,14.6001131 C10.52984,14.6360586 10.3850809,14.613131 10.2669348,14.5369477 L9,13.72 Z" id="Fill-1"></path>
            </g>
        </g>
    </g>
</svg>