<?xml version="1.0" encoding="UTF-8"?>
<svg width="24px" height="24px" viewBox="0 0 24 24" version="1.1" xmlns="http://www.w3.org/2000/svg" xmlns:xlink="http://www.w3.org/1999/xlink">
    <!-- Generator: Sketch 58 (84663) - https://sketch.com -->
    <title></title>
    <desc>Created with Sketch.</desc>
    <g id="Symbols" stroke="none" stroke-width="1" fill="none" fill-rule="evenodd">
        <g id="basics/icon/common/help">
            <g id="@icon/common/help">
                <rect id="Rectangle" x="0" y="0" width="24" height="24"></rect>
                <g id="fill" transform="translate(2.000000, 2.000000)" fill="#333333" fill-rule="nonzero">
                    <path d="M10,0.25 C15.3847763,0.25 19.75,4.61522369 19.75,10 C19.75,15.3847763 15.3847763,19.75 10,19.75 C4.61522369,19.75 0.25,15.3847763 0.25,10 C0.25,4.61522369 4.61522369,0.25 10,0.25 Z M10,1.75 C5.44365081,1.75 1.75,5.44365081 1.75,10 C1.75,14.5563492 5.44365081,18.25 10,18.25 C14.5563492,18.25 18.25,14.5563492 18.25,10 C18.25,5.44365081 14.5563492,1.75 10,1.75 Z M9.79904306,12.8406699 C10.5598086,12.8406699 11.1196172,13.4435407 11.1196172,14.2186603 C11.1196172,14.9937799 10.5598086,15.5966507 9.79904306,15.5966507 C9.05263158,15.5966507 8.49282297,14.9937799 8.49282297,14.2186603 C8.49282297,13.4435407 9.05263158,12.8406699 9.79904306,12.8406699 Z M10.0143541,4.3 C11.7368421,4.3 13,5.18995215 13,7.02727273 C13,9.06555024 10.5023923,9.75454545 10.7177033,11.7784689 L8.88038278,11.7784689 C8.53588517,9.46746411 10.9760766,8.54880383 10.9760766,7.1708134 C10.9760766,6.45311005 10.5023923,5.9937799 9.75598086,5.9937799 C9.12440191,5.9937799 8.62200957,6.32392344 8.16267943,6.79760766 L7,5.7354067 C7.74641148,4.88851675 8.76555024,4.3 10.0143541,4.3 Z" id="Combined-Shape"></path>
                </g>
            </g>
        </g>
    </g>
</svg>