<?xml version="1.0" encoding="UTF-8"?>
<svg width="24px" height="24px" viewBox="0 0 24 24" version="1.1" xmlns="http://www.w3.org/2000/svg" xmlns:xlink="http://www.w3.org/1999/xlink">
    <!-- Generator: Sketch 54.1 (76490) - https://sketchapp.com -->
    <title></title>
    <desc>Created with Sketch.</desc>
    <g id="basics/icon/common/index" stroke="none" stroke-width="1" fill="none" fill-rule="evenodd">
        <g id="@icon/common/sortSelect">
            <rect id="Rectangle" x="0" y="0" width="24" height="24"></rect>
            <g id="fill" transform="translate(2.000000, 2.000000)" fill="#333333" fill-rule="nonzero">
                <path d="M8,6.504 L8,4.5 L16,4.5 L16,6.504 L8,6.504 Z M8,11.004 L8,9 L16,9 L16,11.004 L8,11.004 Z M8,15.504 L8,13.5 L16,13.5 L16,15.504 L8,15.504 Z M7,5.5 C7,6.328 6.32885714,7 5.5,7 C4.67114286,7 4,6.328 4,5.5 C4,4.672 4.67114286,4 5.5,4 C6.32885714,4 7,4.672 7,5.5 Z M7,14.5 C7,15.328 6.32885714,16 5.5,16 C4.67114286,16 4,15.328 4,14.5 C4,13.672 4.67114286,13 5.5,13 C6.32885714,13 7,13.672 7,14.5 Z M7,10 C7,10.828 6.32885714,11.5 5.5,11.5 C4.67114286,11.5 4,10.828 4,10 C4,9.172 4.67114286,8.5 5.5,8.5 C6.32885714,8.5 7,9.172 7,10 Z M2,0 L18,0 C19.1045695,-2.02906125e-16 20,0.8954305 20,2 L20,18 C20,19.1045695 19.1045695,20 18,20 L2,20 C0.8954305,20 1.3527075e-16,19.1045695 0,18 L0,2 C-1.3527075e-16,0.8954305 0.8954305,2.02906125e-16 2,0 Z M2,1.5 C1.72385763,1.5 1.5,1.72385763 1.5,2 L1.5,18 C1.5,18.2761424 1.72385763,18.5 2,18.5 L18,18.5 C18.2761424,18.5 18.5,18.2761424 18.5,18 L18.5,2 C18.5,1.72385763 18.2761424,1.5 18,1.5 L2,1.5 Z" id="Combined-Shape"></path>
            </g>
        </g>
    </g>
</svg>