<?xml version="1.0" encoding="UTF-8"?>
<svg width="24px" height="24px" viewBox="0 0 24 24" version="1.1" xmlns="http://www.w3.org/2000/svg" xmlns:xlink="http://www.w3.org/1999/xlink">
    <!-- Generator: Sketch 54.1 (76490) - https://sketchapp.com -->
    <title></title>
    <desc>Created with Sketch.</desc>
    <g id="basics/icon/common/link" stroke="none" stroke-width="1" fill="none" fill-rule="evenodd">
        <g id="@icon/common/link">
            <rect id="Rectangle" x="0" y="0" width="24" height="24"></rect>
            <g id="fill" transform="translate(11.000000, 12.000000) rotate(-360.000000) translate(-11.000000, -12.000000) translate(1.000000, 2.000000)" fill="#333333" fill-rule="nonzero">
                <path d="M10.767761,11.0407374 L11.9222154,12.1402178 L10.4594564,13.5333217 C9.3201673,14.6183589 7.44900176,14.5954894 6.28009117,13.4822412 L0.892636994,8.3513325 C-0.276273598,7.23808432 -0.300286581,5.4560219 0.839002495,4.37098468 L3.83953392,1.51333571 C4.978823,0.428298494 6.84998853,0.451168002 8.01889913,1.56441618 L11.0974444,4.49636403 L9.97224508,5.5679824 L6.89369984,2.63603455 C6.36237685,2.13001265 5.51184706,2.11961742 4.99398838,2.61281615 L1.99345696,5.47046513 C1.47559829,5.96366386 1.48651328,6.77369223 2.01783628,7.27971414 L7.40529045,12.4106229 C7.93661345,12.9166448 8.78714324,12.92704 9.30500191,12.4338413 L10.767761,11.0407374 L10.767761,11.0407374 Z M9.23223902,9.43545308 L8.07778456,8.33597264 L9.54054363,6.94286876 C10.6798327,5.85783155 12.5509982,5.88070106 13.7199088,6.99394924 L19.107363,12.124858 C20.2762736,13.2381062 20.3002866,15.0201686 19.1609975,16.1052058 L16.1604661,18.9628548 C15.021177,20.047892 13.1500115,20.0250225 11.9811009,18.9117743 L8.90255563,15.9798264 L10.0277549,14.9082081 L13.1063002,17.8401559 C13.6376232,18.3461778 14.4881529,18.3565731 15.0060116,17.8633743 L18.006543,15.0057253 C18.5244017,14.5125266 18.5134867,13.7024982 17.9821637,13.1964763 L12.5947095,8.0655676 C12.0633866,7.5595457 11.2128568,7.54915047 10.6949981,8.04234921 L9.23223902,9.43545308 Z" id="Shape"></path>
            </g>
        </g>
    </g>
</svg>