<?xml version="1.0" encoding="UTF-8"?>
<svg width="24px" height="24px" viewBox="0 0 24 24" version="1.1" xmlns="http://www.w3.org/2000/svg" xmlns:xlink="http://www.w3.org/1999/xlink">
    <!-- Generator: Sketch 54.1 (76490) - https://sketchapp.com -->
    <title></title>
    <desc>Created with Sketch.</desc>
    <g id="basics/icon/common/radio-on" stroke="none" stroke-width="1" fill="none" fill-rule="evenodd">
        <g id="@icon/common/radio-on">
            <rect id="Rectangle" x="0" y="0" width="24" height="24"></rect>
            <g id="fill" transform="translate(2.000000, 2.000000)" fill="#333333" fill-rule="nonzero">
                <g id="Combined-Shape">
                    <path d="M10,0 C15.5,0 20,4.5 20,10 C20,15.5 15.5,20 10,20 C4.5,20 0,15.5 0,10 C0,4.5 4.5,0 10,0 Z M10,1.875 C5.52,1.875 1.875,5.52 1.875,10 C1.875,14.48 5.52,18.125 10,18.125 C14.48,18.125 18.125,14.48 18.125,10 C18.125,5.52 14.48,1.875 10,1.875 Z M10,16 C6.691,16 4,13.308 4,10 C4,6.692 6.691,4 10,4 C13.309,4 16,6.692 16,10 C16,13.308 13.309,16 10,16 Z"></path>
                </g>
            </g>
        </g>
    </g>
</svg>