<?xml version="1.0" encoding="UTF-8"?>
<svg width="24px" height="24px" viewBox="0 0 24 24" version="1.1" xmlns="http://www.w3.org/2000/svg" xmlns:xlink="http://www.w3.org/1999/xlink">
    <!-- Generator: Sketch 54.1 (76490) - https://sketchapp.com -->
    <title></title>
    <desc>Created with Sketch.</desc>
    <g id="basics/icon/common/settings" stroke="none" stroke-width="1" fill="none" fill-rule="evenodd">
        <g id="@icon/common/settings">
            <rect id="Rectangle" x="0" y="0" width="24" height="24"></rect>
            <g id="fill" transform="translate(1.500000, 1.500000)" fill="#333333" fill-rule="nonzero">
                <path d="M18.9276923,7.48564103 C19.7958062,7.48564103 20.5,8.18921383 20.5,9.05794872 L20.5,11.9215385 C20.5,12.7902733 19.7958062,13.4938462 18.9276923,13.4938462 L17.8936331,13.4938462 C17.8805282,13.5257946 17.8671828,13.5577369 17.8535967,13.5896787 L18.590595,14.3273538 C19.2049929,14.9417517 19.2049929,15.9382063 18.5907327,16.5504572 L16.5659796,18.576236 C15.9517301,19.1904854 14.9569878,19.1904854 14.342989,18.5764865 L13.6102772,17.8444494 C13.5783711,17.8580484 13.5463983,17.87143 13.514359,17.8845934 L13.514359,18.9287179 C13.514359,19.7969398 12.8106777,20.5 11.9420513,20.5 L9.07846154,20.5 C8.21065816,20.5 7.50615385,19.7967382 7.50615385,18.9287179 L7.50615385,17.8936718 C7.47409975,17.8805181 7.44207753,17.8671289 7.41008517,17.8535052 L6.67264624,18.5916206 C6.05921988,19.205047 5.0634526,19.2056682 4.44940504,18.5916206 L2.42287452,16.5650886 C1.8108367,15.9510441 1.8108367,14.9576738 2.42376401,14.3427384 L3.15544572,13.6110567 C3.14188282,13.5792323 3.12853617,13.5473416 3.11540662,13.5153846 L2.07230769,13.5153846 C1.20439635,13.5153846 0.5,12.8109883 0.5,11.9430769 L0.5,9.07846154 C0.5,8.21055019 1.20439635,7.50615385 2.07230769,7.50615385 L3.10706346,7.50615385 C3.12018236,7.47416045 3.13352103,7.4422161 3.14707876,7.41031997 L2.40940504,6.67264624 C1.79515558,6.05839679 1.79515558,5.0636545 2.40926732,4.4495428 L4.43402042,2.42376401 C5.04826988,1.80951456 6.04403781,1.80951456 6.65828727,2.42376401 L7.39032351,3.15580026 C7.42206593,3.14227435 7.45383802,3.12897809 7.48564103,3.11591254 L7.48564103,2.07230769 C7.48564103,1.20419379 8.18921383,0.5 9.05794872,0.5 L11.9215385,0.5 C12.7894498,0.5 13.4938462,1.20439635 13.4938462,2.07230769 L13.4938462,3.10691573 C13.5259746,3.12005716 13.5580535,3.13342702 13.5900839,3.14702448 L14.3274899,2.41029599 C14.9407681,1.79500709 15.936197,1.79500709 16.5504572,2.40926732 L18.5771255,4.43491138 C19.1893116,5.04910461 19.1893116,6.04418606 18.5764865,6.65701103 L17.8444494,7.38972282 C17.8580484,7.42162887 17.87143,7.45360168 17.8845934,7.48564103 L18.9276923,7.48564103 Z M18.9615385,11.9215385 L18.9615385,9.05794872 C18.9615385,9.03918666 18.9464411,9.02410256 18.9276923,9.02410256 L17.3492308,9.02410256 C17.0169044,9.02410256 16.7221532,8.81068705 16.6184282,8.49496255 C16.5159356,8.18298943 16.3876923,7.87703758 16.2344798,7.57715211 C16.0827808,7.28022918 16.1396462,6.91938123 16.3753084,6.68350179 L17.4883794,5.56940504 C17.5009449,5.55683958 17.5009449,5.53448513 17.4885172,5.52201473 L15.4627384,3.49726163 C15.449444,3.48396727 15.4294884,3.48396727 15.4159865,3.49751096 L14.2970122,4.61545968 C14.0616288,4.85062729 13.7017288,4.90779988 13.4050562,4.75715303 C13.1016288,4.60307618 12.7961706,4.47559252 12.487047,4.37521619 C12.1700367,4.27227894 11.9553846,3.97689381 11.9553846,3.64358974 L11.9553846,2.07230769 C11.9553846,2.05406519 11.939781,2.03846154 11.9215385,2.03846154 L9.05794872,2.03846154 C9.03918666,2.03846154 9.02410256,2.05355895 9.02410256,2.07230769 L9.02410256,3.65179487 C9.02410256,3.98485904 8.80975418,4.28008879 8.49305923,4.38322 C8.18713023,4.4828453 7.88178015,4.61083635 7.57545665,4.7663838 C7.27866815,4.91708948 6.91861859,4.85980851 6.68325119,4.62444111 L5.57043068,3.5116206 C5.55698783,3.49817775 5.53531986,3.49817775 5.52201473,3.51148285 L3.49726163,5.53726163 C3.48381877,5.55070448 3.48381877,5.5713468 3.49726163,5.58478966 L4.61521034,6.70273837 C4.85032635,6.93785438 4.90776208,7.29742298 4.7575894,7.59408312 C4.60360134,7.8982804 4.47538713,8.20493943 4.37336668,8.51547537 C4.26964163,8.83119987 3.97489052,9.04461538 3.6425641,9.04461538 L2.07230769,9.04461538 C2.05406519,9.04461538 2.03846154,9.06021904 2.03846154,9.07846154 L2.03846154,11.9430769 C2.03846154,11.9613194 2.05406519,11.9769231 2.07230769,11.9769231 L3.65076923,11.9769231 C3.98309565,11.9769231 4.27784675,12.1903386 4.38157181,12.5060631 C4.48406442,12.8180362 4.61230771,13.1239881 4.76552022,13.4238735 C4.91727858,13.7209128 4.86030432,14.0819112 4.62444111,14.3177744 L3.5125101,15.429704 C3.49890689,15.4433518 3.49890689,15.4653661 3.5116206,15.478123 L5.53726163,17.503764 C5.55019853,17.5167009 5.57186627,17.5166874 5.58454032,17.5040135 L6.70248904,16.3850391 C6.93784034,16.1494719 7.29803946,16.0920824 7.59494383,16.242847 C7.90166812,16.3985979 8.20675588,16.5263834 8.51295297,16.6258095 C8.82996326,16.7287467 9.04461538,17.0241318 9.04461538,17.3574359 L9.04461538,18.9287179 C9.04461538,18.9464608 9.05971966,18.9615385 9.07846154,18.9615385 L11.9420513,18.9615385 C11.9613128,18.9615385 11.9758974,18.9469667 11.9758974,18.9287179 L11.9758974,17.3492308 C11.9758974,17.0169044 12.1893129,16.7221532 12.5050374,16.6184282 C12.8170106,16.5159356 13.1229624,16.3876923 13.4228479,16.2344798 C13.7197708,16.0827808 14.0806188,16.1396462 14.3164982,16.3753084 L15.430595,17.4883794 C15.4440378,17.5018223 15.4646801,17.5018223 15.4779853,17.4885172 L17.5036293,15.4618489 C17.5160327,15.449486 17.5160327,15.4285047 17.5024888,15.4149607 L16.3855657,14.2970119 C16.1511451,14.0623761 16.0935141,13.7039051 16.2425784,13.4076167 C16.3999741,13.0947686 16.5272412,12.7906024 16.6258095,12.487047 C16.7287467,12.1700367 17.0241318,11.9553846 17.3574359,11.9553846 L18.9276923,11.9553846 C18.9464411,11.9553846 18.9615385,11.9403005 18.9615385,11.9215385 Z M13.3225641,10.5003077 C13.3225641,8.94155237 12.0587553,7.67774359 10.5,7.67774359 C8.94124468,7.67774359 7.6774359,8.94155237 7.6774359,10.5003077 C7.6774359,12.059063 8.94124468,13.3228718 10.5,13.3228718 C12.0587553,13.3228718 13.3225641,12.059063 13.3225641,10.5003077 Z M14.8610256,10.5003077 C14.8610256,12.9087319 12.9084242,14.8613333 10.5,14.8613333 C8.09157583,14.8613333 6.13897436,12.9087319 6.13897436,10.5003077 C6.13897436,8.09188353 8.09157583,6.13928205 10.5,6.13928205 C12.9084242,6.13928205 14.8610256,8.09188353 14.8610256,10.5003077 Z" id="Combined-Shape"></path>
            </g>
        </g>
    </g>
</svg>