<?xml version="1.0" encoding="UTF-8"?>
<svg width="24px" height="24px" viewBox="0 0 24 24" version="1.1" xmlns="http://www.w3.org/2000/svg" xmlns:xlink="http://www.w3.org/1999/xlink">
    <!-- Generator: Sketch 54.1 (76490) - https://sketchapp.com -->
    <title></title>
    <desc>Created with Sketch.</desc>
    <g id="basics/icon/common/tag" stroke="none" stroke-width="1" fill="none" fill-rule="evenodd">
        <g id="@icon/common/tag">
            <rect id="Rectangle" x="0" y="0" width="24" height="24"></rect>
            <g id="fill" transform="translate(12.292893, 11.207107) rotate(-315.000000) translate(-12.292893, -11.207107) translate(6.292893, 1.707107)" fill="#333333" fill-rule="nonzero">
                <path d="M6.75,4.22795789 L6.75,5.76772981 C7.9042524,6.09419425 8.75,7.15543644 8.75,8.41421356 C8.75,9.93299662 7.51878306,11.1642136 6,11.1642136 C4.48121694,11.1642136 3.25,9.93299662 3.25,8.41421356 C3.25,7.15543644 4.0957476,6.09419425 5.25,5.76772981 L5.25,4.22795789 L1.78448276,7.00968422 L1.78448276,17.4142136 L10.2155172,17.4142136 L10.2155172,7.00968422 L6.75,4.22795789 Z M5.25,2.30450003 L5.25,1.49055847 C5.25,1.07634491 5.58578644,0.740558471 6,0.740558471 C6.41421356,0.740558471 6.75,1.07634491 6.75,1.49055847 L6.75,2.30450003 L11.4349963,6.06508654 C11.612339,6.20743727 11.7155172,6.42256319 11.7155172,6.64997068 L11.7155172,18.1642136 C11.7155172,18.5784271 11.3797308,18.9142136 10.9655172,18.9142136 L1.03448276,18.9142136 C0.620269196,18.9142136 0.284482759,18.5784271 0.284482759,18.1642136 L0.284482759,6.64997068 C0.284482759,6.42256319 0.387661028,6.20743727 0.565003747,6.06508654 L5.25,2.30450003 Z M5.25,7.41412202 C4.94638832,7.6421736 4.75,8.0052591 4.75,8.41421356 C4.75,9.1045695 5.30964406,9.66421356 6,9.66421356 C6.69035594,9.66421356 7.25,9.1045695 7.25,8.41421356 C7.25,8.0052591 7.05361168,7.6421736 6.75,7.41412202 L6.75,7.91421356 C6.75,8.32842712 6.41421356,8.66421356 6,8.66421356 C5.58578644,8.66421356 5.25,8.32842712 5.25,7.91421356 L5.25,7.41412202 Z" id="Combined-Shape"></path>
            </g>
        </g>
    </g>
</svg>