<?xml version="1.0" encoding="UTF-8"?>
<svg width="20px" height="20px" viewBox="0 0 20 20" version="1.1" xmlns="http://www.w3.org/2000/svg" xmlns:xlink="http://www.w3.org/1999/xlink">
    <!-- Generator: Sketch 54.1 (76490) - https://sketchapp.com -->
    <title>@icon/common/checkBox-off</title>
    <desc>Created with Sketch.</desc>
    <g id="Symbols" stroke="none" stroke-width="1" fill="none" fill-rule="evenodd">
        <g id="basics/icon/common/checkBox-off" transform="translate(-2.000000, -2.000000)">
            <g id="@icon/common/checkBox-off">
                <rect id="Rectangle" x="0" y="0" width="24" height="24"></rect>
                <g id="outline" transform="translate(2.000000, 2.000000)" stroke="#008B28" stroke-width="1.5">
                    <path d="M2.5,0.75 C1.53921356,0.75 0.75,1.53921356 0.75,2.5 L0.75,17.5 C0.75,18.4607864 1.53921356,19.25 2.5,19.25 L17.5,19.25 C18.4607864,19.25 19.25,18.4607864 19.25,17.5 L19.25,2.5 C19.25,1.53921356 18.4607864,0.75 17.5,0.75 L2.5,0.75 Z" id="Path"></path>
                </g>
                <g id="fill" transform="translate(2.000000, 2.000000)" fill="#333333" fill-rule="nonzero">
                    <path d="M2.5,1.5 C1.95342712,1.5 1.5,1.95342712 1.5,2.5 L1.5,17.5 C1.5,18.0465729 1.95342712,18.5 2.5,18.5 L17.5,18.5 C18.0465729,18.5 18.5,18.0465729 18.5,17.5 L18.5,2.5 C18.5,1.95342712 18.0465729,1.5 17.5,1.5 L2.5,1.5 Z M2.5,0 L17.5,0 C18.875,0 20,1.125 20,2.5 L20,17.5 C20,18.875 18.875,20 17.5,20 L2.5,20 C1.125,20 0,18.875 0,17.5 L0,2.5 C0,1.125 1.125,0 2.5,0 Z" id="Path"></path>
                </g>
            </g>
        </g>
    </g>
</svg>