<?xml version="1.0" encoding="UTF-8"?>
<svg width="24px" height="24px" viewBox="0 0 24 24" version="1.1" xmlns="http://www.w3.org/2000/svg" xmlns:xlink="http://www.w3.org/1999/xlink">
    <!-- Generator: Sketch 54.1 (76490) - https://sketchapp.com -->
    <title>basics/icon/common/key</title>
    <desc>Created with Sketch.</desc>
    <g id="basics/icon/common/key" stroke="none" stroke-width="1" fill="none" fill-rule="evenodd">
        <g id="@icon/common/key">
            <rect id="Rectangle" x="0" y="0" width="24" height="24"></rect>
            <g id="outline" transform="translate(3.000000, 4.000000)" stroke="#000000" stroke-width="1.5">
                <circle id="Oval" transform="translate(2.500000, 8.288889) rotate(-90.000000) translate(-2.500000, -8.288889) " cx="2.5" cy="8.28888889" r="2.5"></circle>
                <path d="M9.5,3.78888889 L9.5,12.7888889" id="Path" transform="translate(9.500000, 8.288889) rotate(-90.000000) translate(-9.500000, -8.288889) "></path>
                <path d="M7,7.28888889 L10,7.28888889" id="Path-2" transform="translate(8.500000, 7.288889) rotate(-90.000000) translate(-8.500000, -7.288889) "></path>
                <path d="M10,7.28888889 L13,7.28888889" id="Path-2-Copy" transform="translate(11.500000, 7.288889) rotate(-90.000000) translate(-11.500000, -7.288889) "></path>
                <path d="M4.34314575,13.6568542 C5.790861,15.1045695 7.790861,16 10,16 C14.418278,16 18,12.418278 18,8 C18,3.581722 14.418278,0 10,0 C7.790861,0 5.790861,0.8954305 4.34314575,2.34314575" id="Path" stroke-linecap="round"></path>
            </g>
            <g id="fill" transform="translate(2.000000, 3.000000)" fill="#333333" fill-rule="nonzero">
                <path d="M11.75,8.53888889 L11.75,6.78888889 L13.25,6.78888889 L13.25,8.53888889 L15,8.53888889 L15,10.0388889 L6.66303408,10.0388889 C6.32445218,11.4722389 5.03679082,12.5388889 3.5,12.5388889 C1.70507456,12.5388889 0.25,11.0838143 0.25,9.28888889 C0.25,7.49396345 1.70507456,6.03888889 3.5,6.03888889 C5.03679082,6.03888889 6.32445218,7.10553889 6.66303408,8.53888889 L8.75,8.53888889 L8.75,6.78888889 L10.25,6.78888889 L10.25,8.53888889 L11.75,8.53888889 Z M5.25,9.28888889 C5.25,8.32239058 4.46649831,7.53888889 3.5,7.53888889 C2.53350169,7.53888889 1.75,8.32239058 1.75,9.28888889 C1.75,10.2553872 2.53350169,11.0388889 3.5,11.0388889 C4.46649831,11.0388889 5.25,10.2553872 5.25,9.28888889 Z M4.81281566,15.1871843 C4.51992245,14.8942911 4.51992245,14.4194174 4.81281566,14.1265242 C5.10570888,13.8336309 5.58058262,13.8336309 5.87347584,14.1265242 C7.22482634,15.4778747 9.05033566,16.25 11,16.25 C15.0040644,16.25 18.25,13.0040644 18.25,9 C18.25,4.99593556 15.0040644,1.75 11,1.75 C9.05033566,1.75 7.22482634,2.52212533 5.87347584,3.87347584 C5.58058262,4.16636906 5.10570888,4.16636906 4.81281566,3.87347584 C4.51992245,3.58058262 4.51992245,3.10570888 4.81281566,2.81281566 C6.4426821,1.18294923 8.64842182,0.25 11,0.25 C15.8324916,0.25 19.75,4.16750844 19.75,9 C19.75,13.8324916 15.8324916,17.75 11,17.75 C8.64842182,17.75 6.4426821,16.8170508 4.81281566,15.1871843 Z" id="Combined-Shape"></path>
            </g>
        </g>
    </g>
</svg>