<?xml version="1.0" encoding="UTF-8"?>
<svg width="24px" height="24px" viewBox="0 0 24 24" version="1.1" xmlns="http://www.w3.org/2000/svg" xmlns:xlink="http://www.w3.org/1999/xlink">
    <!-- Generator: Sketch 54.1 (76490) - https://sketchapp.com -->
    <title>basics/icon/common/phone</title>
    <desc>Created with Sketch.</desc>
    <g id="basics/icon/common/phone" stroke="none" stroke-width="1" fill="none" fill-rule="evenodd">
        <g id="@icon/common/phone">
            <rect id="Rectangle" x="0" y="0" width="24" height="24"></rect>
            <g id="fill" transform="translate(2.000000, 2.000000)" fill="#333333" fill-rule="nonzero">
                <path d="M17.710783,12.0911105 L19.1012556,13.4825833 C20.1825979,14.5625534 20.1825979,16.3149466 19.1015924,17.3945801 L17.9815924,18.5145801 C16.2623536,20.2338189 13.5251489,20.3856279 11.6268275,18.8669707 L9.97366093,17.5448375 C7.25869508,15.3722554 4.79221838,12.9052683 2.61750699,10.1876416 L1.2967893,8.53599437 C-0.22328166,6.63738896 -0.0721995008,3.90005169 1.64793228,2.17991991 L2.76793228,1.05991991 C3.8478255,-0.0199733047 5.59969923,-0.0199733047 6.67959245,1.05991991 L8.07159245,2.45191991 C9.15148567,3.53181313 9.15148567,5.28368687 8.07159245,6.36358009 L8.06459245,6.37058009 C7.65399601,6.78117652 7.57526203,7.41967424 7.87329241,7.9172288 C8.94999125,9.7107824 10.45173,11.2125211 12.2452534,12.2892019 C12.7431713,12.5880781 13.381061,12.5094191 13.7919323,12.0979199 L13.7989323,12.0909199 C14.8787694,11.0110828 16.6293835,11.0110828 17.710783,12.0911105 Z M14.8529974,13.1581748 C13.9557874,14.0567567 12.5617464,14.2286577 11.4732412,13.57528 C9.46879477,12.3719789 7.79053348,10.6937176 6.58685649,8.68864444 C5.93502695,7.60043219 6.10685298,6.20699922 7.00393228,5.30991991 L7.01093228,5.30291991 C7.50503906,4.80881313 7.50503906,4.00668687 7.01093228,3.51258009 L5.61893228,2.12058009 C5.1248255,1.6264733 4.32269923,1.6264733 3.82859245,2.12058009 L2.70859245,3.24058009 C1.52907404,4.42009849 1.4254972,6.29672485 2.46801773,7.59885845 L3.78884985,9.25064857 C5.89430211,11.8817257 8.28231901,14.2702367 10.9106972,16.3735293 L12.5637836,17.6955984 C13.8653165,18.7368247 15.7421173,18.6327348 16.9209323,17.4539199 L18.0412691,16.3335833 C18.5359268,15.8395534 18.5359268,15.0379466 18.0407418,14.5433895 L16.6502691,13.1519167 C16.1551413,12.6574172 15.3537553,12.6574172 14.8595924,13.1515801 L14.8529974,13.1581748 Z" id="Stroke-1"></path>
            </g>
        </g>
    </g>
</svg>