<svg width="24" height="24" viewBox="0 0 24 24" fill="none" xmlns="http://www.w3.org/2000/svg">
<path id="fill" fill-rule="evenodd" clip-rule="evenodd" d="M10.9697 7.28033C10.6768 6.98744 10.6768 6.51256 10.9697 6.21967C11.2626 5.92678 11.7374 5.92678 12.0303 6.21967L17.0303 11.2197C17.3232 11.5126 17.3232 11.9874 17.0303 12.2803L12.0303 17.2803C11.7374 17.5732 11.2626 17.5732 10.9697 17.2803C10.6768 16.9874 10.6768 16.5126 10.9697 16.2197L14.6893 12.5H3.5C3.08579 12.5 2.75 12.1642 2.75 11.75C2.75 11.3358 3.08579 11 3.5 11H14.6893L10.9697 7.28033Z" fill="#088736"/>
<path id="fill" d="M20 6L20 17" stroke="#088736" stroke-width="1.5" stroke-linecap="round"/>
</svg>
