<svg width="24" height="24" viewBox="0 0 24 24" fill="none" xmlns="http://www.w3.org/2000/svg"><circle cx="12.0002" cy="12" r="10" fill="#EAEAEA"/><path d="M5.37802 17.4899C5.17693 17.1938 5.17693 16.8062 5.37802 16.5101C6.81714 14.3917 9.24617 13 12.0002 13C14.7543 13 17.1833 14.3917 18.6225 16.5101C18.8235 16.8062 18.8235 17.1938 18.6225 17.4899C17.1833 19.6083 14.7543 21 12.0002 21C9.24617 21 6.81714 19.6083 5.37802 17.4899Z" fill="#ADADAD"/><circle cx="12.0002" cy="9" r="4" fill="#ADADAD"/><rect x="2.00024" y="2" width="20" height="20" rx="2" fill="#EAEAEA"/><path d="M5.90775 21C5.57648 21 5.31332 20.8121 5.2844 20.4821C5.18431 19.34 5.21551 16.7493 5.37799 16.5101C6.81711 14.3917 9.24614 13 12.0002 13C14.7543 13 17.1833 14.3917 18.6224 16.5101C18.7849 16.7493 18.8161 19.34 18.716 20.4821C18.6871 20.8121 18.4235 21 18.0922 21C15.8187 21 14.562 21 12.0002 21C9.47844 21 7.80173 21 5.90775 21Z" fill="#ADADAD"/><path d="M16.0002 9C16.0002 11.2091 14.2093 13 12.0002 13C9.79107 13 8.00022 11.2091 8.00022 9C8.00022 6.79086 9.79108 5 12.0002 5C14.2094 5 16.0002 6.79086 16.0002 9Z" fill="#ADADAD"/></svg>
