<svg width="24" height="24" viewBox="0 0 24 24" fill="none" xmlns="http://www.w3.org/2000/svg"><g clip-path="url(#clip0)"><rect width="24" height="24" rx="2" fill="#EAEAEA"/><path d="M4.58319 22.8C4.25192 22.8 3.98439 22.6147 3.95112 22.2851C3.81911 20.9769 3.85321 17.7069 4.05342 17.4121C5.78037 14.87 8.6952 13.2 12.0001 13.2C15.305 13.2 18.2198 14.87 19.9467 17.4121C20.147 17.7069 20.1811 20.9769 20.049 22.2851C20.0158 22.6147 19.7479 22.8 19.4166 22.8C16.6208 22.8 15.1138 22.8 12.0001 22.8C8.92702 22.8 6.89974 22.8 4.58319 22.8Z" fill="#ADADAD"/><path d="M16.8001 8.39997C16.8001 11.0509 14.651 13.2 12.0001 13.2C9.34912 13.2 7.20009 11.0509 7.20009 8.39997C7.20009 5.74901 9.34912 3.59998 12.0001 3.59998C14.6511 3.59998 16.8001 5.74901 16.8001 8.39997Z" fill="#ADADAD"/></g><defs><clipPath id="clip0"><rect width="24" height="24" fill="white" transform="translate(0.000244141)"/></clipPath></defs></svg>
