<svg width="24" height="24" viewBox="0 0 24 24" fill="none" xmlns="http://www.w3.org/2000/svg">
<path id="fill" fill-rule="evenodd" clip-rule="evenodd" d="M3.25012 5.5C3.25012 5.08579 3.58591 4.75 4.00012 4.75H20.0001C20.4143 4.75 20.7501 5.08579 20.7501 5.5C20.7501 5.91421 20.4143 6.25 20.0001 6.25H4.00012C3.58591 6.25 3.25012 5.91421 3.25012 5.5ZM3.25012 19.5C3.25012 19.0858 3.58591 18.75 4.00012 18.75H4.75012V9.5C4.75012 9.08579 5.08591 8.75 5.50012 8.75H8.50012C8.91434 8.75 9.25012 9.08579 9.25012 9.5V18.75H9.75012V9.5C9.75012 9.08579 10.0859 8.75 10.5001 8.75H13.5001C13.9143 8.75 14.2501 9.08579 14.2501 9.5V18.75H14.7501V9.5C14.7501 9.08579 15.0859 8.75 15.5001 8.75H18.5001C18.9143 8.75 19.2501 9.08579 19.2501 9.5V18.75H20.0001C20.4143 18.75 20.7501 19.0858 20.7501 19.5C20.7501 19.9142 20.4143 20.25 20.0001 20.25H18.5001H15.5001H13.5001H10.5001H8.50012H5.50012H4.00012C3.58591 20.25 3.25012 19.9142 3.25012 19.5ZM17.7501 18.75V10.25H16.2501V18.75H17.7501ZM12.7501 18.75H11.2501V10.25H12.7501V18.75ZM7.75012 18.75V10.25H6.25012V18.75H7.75012Z" fill="#088736"/>
<path d="M5 5.5C5 6.32843 4.32843 7 3.5 7C2.67157 7 2 6.32843 2 5.5C2 4.67157 2.67157 4 3.5 4C4.32843 4 5 4.67157 5 5.5Z" fill="white"/>
<path id="fill" fill-rule="evenodd" clip-rule="evenodd" d="M3.5 4.75C3.08579 4.75 2.75 5.08579 2.75 5.5C2.75 5.91421 3.08579 6.25 3.5 6.25C3.91421 6.25 4.25 5.91421 4.25 5.5C4.25 5.08579 3.91421 4.75 3.5 4.75ZM1.25 5.5C1.25 4.25736 2.25736 3.25 3.5 3.25C4.74264 3.25 5.75 4.25736 5.75 5.5C5.75 6.74264 4.74264 7.75 3.5 7.75C2.25736 7.75 1.25 6.74264 1.25 5.5Z" fill="#088736"/>
<path d="M22 5.5C22 6.32843 21.3284 7 20.5 7C19.6716 7 19 6.32843 19 5.5C19 4.67157 19.6716 4 20.5 4C21.3284 4 22 4.67157 22 5.5Z" fill="white"/>
<path id="fill" fill-rule="evenodd" clip-rule="evenodd" d="M20.5 4.75C20.0858 4.75 19.75 5.08579 19.75 5.5C19.75 5.91421 20.0858 6.25 20.5 6.25C20.9142 6.25 21.25 5.91421 21.25 5.5C21.25 5.08579 20.9142 4.75 20.5 4.75ZM18.25 5.5C18.25 4.25736 19.2574 3.25 20.5 3.25C21.7426 3.25 22.75 4.25736 22.75 5.5C22.75 6.74264 21.7426 7.75 20.5 7.75C19.2574 7.75 18.25 6.74264 18.25 5.5Z" fill="#088736"/>
</svg>
