<svg width="8" height="8" viewBox="0 0 8 8" fill="none" xmlns="http://www.w3.org/2000/svg">
<path fill-rule="evenodd" clip-rule="evenodd" d="M6.21692 7.27758C6.50981 7.57047 6.98468 7.57047 7.27758 7.27758C7.57047 6.98468 7.57047 6.50981 7.27758 6.21692L5.05972 3.99906L5.07955 3.97923L7.27845 1.78033C7.57134 1.48744 7.57134 1.01256 7.27845 0.71967C6.98555 0.426777 6.51068 0.426777 6.21779 0.71967L4.01889 2.91857L3.99906 2.9384L3.97923 2.91857L1.78033 0.71967C1.48744 0.426777 1.01256 0.426777 0.71967 0.71967C0.426777 1.01256 0.426777 1.48744 0.71967 1.78033L2.91857 3.97923L2.9384 3.99906L0.72054 6.21692C0.427646 6.50981 0.427646 6.98468 0.72054 7.27758C1.01343 7.57047 1.48831 7.57047 1.7812 7.27758L3.99906 5.05972L6.21692 7.27758Z" fill="#E05548"/>
</svg>
