<svg width="24" height="24" viewBox="0 0 24 24" fill="none" xmlns="http://www.w3.org/2000/svg">
<path id="fill" d="M13.2803 7.53033C13.5732 7.23744 13.5732 6.76256 13.2803 6.46967C12.9874 6.17678 12.5126 6.17678 12.2197 6.46967L7.21967 11.4697C6.92678 11.7626 6.92678 12.2374 7.21967 12.5303L12.2197 17.5303C12.5126 17.8232 12.9874 17.8232 13.2803 17.5303C13.5732 17.2374 13.5732 16.7626 13.2803 16.4697L9.56066 12.75H20.75C21.1642 12.75 21.5 12.4142 21.5 12C21.5 11.5858 21.1642 11.25 20.75 11.25H9.56066L13.2803 7.53033Z" fill="#088736"/>
<path id="fill" d="M4 6L4 17" stroke="#088736" stroke-width="1.5" stroke-linecap="round"/>
</svg>
