<?xml version="1.0" encoding="UTF-8"?>
<svg width="24px" height="24px" viewBox="0 0 24 24" version="1.1" xmlns="http://www.w3.org/2000/svg" xmlns:xlink="http://www.w3.org/1999/xlink">
    <!-- Generator: Sketch 54.1 (76490) - https://sketchapp.com -->
    <title>basics/icon/common/blackbaord</title>
    <desc>Created with Sketch.</desc>
    <g id="basics/icon/common/blackbaord" stroke="none" stroke-width="1" fill="none" fill-rule="evenodd">
        <g id="@icon/common/blackbaord">
            <rect id="Rectangle" x="0" y="0" width="24" height="24"></rect>
            <g id="fill" transform="translate(2.000000, 3.000000)" fill="#333333" fill-rule="nonzero">
                <path d="M12.6237063,15 L7.37629371,15 L5.68535866,18.8046038 L4.31464134,18.1953962 L5.73481741,15 L1,15 C0.44771525,15 6.76353751e-17,14.5522847 0,14 L0,1 C-6.76353751e-17,0.44771525 0.44771525,1.01453063e-16 1,0 L19,0 C19.5522847,-1.01453063e-16 20,0.44771525 20,1 L20,14 C20,14.5522847 19.5522847,15 19,15 L14.2651826,15 L15.6853587,18.1953962 L14.3146413,18.8046038 L12.6237063,15 Z M1.5,1.5 L1.5,13.5 L18.5,13.5 L18.5,1.5 L1.5,1.5 Z M4.5,5.25 L4.5,3.75 L15.5512646,3.75 L15.5512646,5.25 L4.5,5.25 Z M4.5,8.25 L4.5,6.75 L15.5512646,6.75 L15.5512646,8.25 L4.5,8.25 Z M4.5,11.25 L4.5,9.75 L15.5512646,9.75 L15.5512646,11.25 L4.5,11.25 Z" id="Combined-Shape"></path>
            </g>
        </g>
    </g>
</svg>