<svg width="24" height="24" viewBox="0 0 24 24" fill="none" xmlns="http://www.w3.org/2000/svg">
<path d="M2 7C2 6.44772 2.44772 6 3 6H17C17.5523 6 18 6.44772 18 7V21C18 21.5523 17.5523 22 17 22H3C2.44772 22 2 21.5523 2 21V7Z" fill="#088736"/>
<path id="fill" fill-rule="evenodd" clip-rule="evenodd" d="M7.5 3.5V16.5H20.5V3.5H7.5ZM7 2C6.44772 2 6 2.44772 6 3V17C6 17.5523 6.44772 18 7 18H21C21.5523 18 22 17.5523 22 17V3C22 2.44772 21.5523 2 21 2H7Z" fill="#088736"/>
<path fill-rule="evenodd" clip-rule="evenodd" d="M15.2803 10.9697C15.5732 11.2626 15.5732 11.7374 15.2803 12.0303L9.28033 18.0303C8.98744 18.3232 8.51256 18.3232 8.21967 18.0303L4.71967 14.5303C4.42678 14.2374 4.42678 13.7626 4.71967 13.4697C5.01256 13.1768 5.48744 13.1768 5.78033 13.4697L8.75 16.4393L14.2197 10.9697C14.5126 10.6768 14.9874 10.6768 15.2803 10.9697Z" fill="white"/>
</svg>
