<svg width="24" height="24" viewBox="0 0 24 24" fill="none" xmlns="http://www.w3.org/2000/svg">
<path id="fill" d="M7.50009 13.25C7.50009 12.9739 7.72395 12.75 8.00009 12.75H9.00009C9.27623 12.75 9.50009 12.9739 9.50009 13.25V14.25C9.50009 14.5261 9.27623 14.75 9.00009 14.75H8.00009C7.72395 14.75 7.50009 14.5261 7.50009 14.25V13.25Z" fill="#088736"/>
<path id="fill" d="M8.00009 15.75C7.72395 15.75 7.50009 15.9739 7.50009 16.25V17.25C7.50009 17.5261 7.72395 17.75 8.00009 17.75H9.00009C9.27623 17.75 9.50009 17.5261 9.50009 17.25V16.25C9.50009 15.9739 9.27623 15.75 9.00009 15.75H8.00009Z" fill="#088736"/>
<path id="fill" d="M11.0001 13.25C11.0001 12.9739 11.2239 12.75 11.5001 12.75H12.5001C12.7762 12.75 13.0001 12.9739 13.0001 13.25V14.25C13.0001 14.5261 12.7762 14.75 12.5001 14.75H11.5001C11.2239 14.75 11.0001 14.5261 11.0001 14.25V13.25Z" fill="#088736"/>
<path id="fill" d="M11.5001 15.75C11.2239 15.75 11.0001 15.9739 11.0001 16.25V17.25C11.0001 17.5261 11.2239 17.75 11.5001 17.75H12.5001C12.7762 17.75 13.0001 17.5261 13.0001 17.25V16.25C13.0001 15.9739 12.7762 15.75 12.5001 15.75H11.5001Z" fill="#088736"/>
<path id="fill" d="M14.5001 13.25C14.5001 12.9739 14.7239 12.75 15.0001 12.75H16.0001C16.2762 12.75 16.5001 12.9739 16.5001 13.25V14.25C16.5001 14.5261 16.2762 14.75 16.0001 14.75H15.0001C14.7239 14.75 14.5001 14.5261 14.5001 14.25V13.25Z" fill="#088736"/>
<path id="fill" d="M15.0001 15.75C14.7239 15.75 14.5001 15.9739 14.5001 16.25V17.25C14.5001 17.5261 14.7239 17.75 15.0001 17.75H16.0001C16.2762 17.75 16.5001 17.5261 16.5001 17.25V16.25C16.5001 15.9739 16.2762 15.75 16.0001 15.75H15.0001Z" fill="#088736"/>
<path id="fill" fill-rule="evenodd" clip-rule="evenodd" d="M9.25009 5.5C9.25009 5.08579 8.91431 4.75 8.50009 4.75C8.08588 4.75 7.75009 5.08579 7.75009 5.5V6.25H5.00009C4.58588 6.25 4.25009 6.58579 4.25009 7V20C4.25009 20.4142 4.58588 20.75 5.00009 20.75H19.0001C19.4143 20.75 19.7501 20.4142 19.7501 20V7C19.7501 6.58579 19.4143 6.25 19.0001 6.25H16.2501V5.5C16.2501 5.08579 15.9143 4.75 15.5001 4.75C15.0859 4.75 14.7501 5.08579 14.7501 5.5V6.25H9.25009V5.5ZM18.2501 9.75V7.75H16.2501V8.5C16.2501 8.91421 15.9143 9.25 15.5001 9.25C15.0859 9.25 14.7501 8.91421 14.7501 8.5V7.75H9.25009V8.5C9.25009 8.91421 8.91431 9.25 8.50009 9.25C8.08588 9.25 7.75009 8.91421 7.75009 8.5V7.75H5.75009V9.75H18.2501ZM5.75009 11.25H18.2501V19.25H5.75009V11.25Z" fill="#088736"/>
</svg>
