<svg width="24" height="24" viewBox="0 0 24 24" fill="none" xmlns="http://www.w3.org/2000/svg">
<path id="fill" fill-rule="evenodd" clip-rule="evenodd" d="M9.25009 5.5C9.25009 5.08579 8.91431 4.75 8.50009 4.75C8.08588 4.75 7.75009 5.08579 7.75009 5.5V6.25H5.00009C4.58588 6.25 4.25009 6.58579 4.25009 7V20C4.25009 20.4142 4.58588 20.75 5.00009 20.75H8.50009H10.2501C10.6643 20.75 11.0001 20.4142 11.0001 20C11.0001 19.5858 10.6643 19.25 10.2501 19.25H8.50009H5.75009V11.25H18.2737C18.357 11.5735 18.6506 11.8125 19.0001 11.8125C19.4143 11.8125 19.7501 11.4767 19.7501 11.0625V10.5V10.25V7C19.7501 6.58579 19.4143 6.25 19.0001 6.25H16.2501V5.5C16.2501 5.08579 15.9143 4.75 15.5001 4.75C15.0859 4.75 14.7501 5.08579 14.7501 5.5V6.25H9.25009V5.5ZM18.2501 9.75V7.75H16.2501V8.5C16.2501 8.91421 15.9143 9.25 15.5001 9.25C15.0859 9.25 14.7501 8.91421 14.7501 8.5V7.75H9.25009V8.5C9.25009 8.91421 8.91431 9.25 8.50009 9.25C8.08588 9.25 7.75009 8.91421 7.75009 8.5V7.75H5.75009V9.75H18.2501ZM7.50009 13.25C7.50009 12.9739 7.72395 12.75 8.00009 12.75H9.00009C9.27623 12.75 9.50009 12.9739 9.50009 13.25V14.25C9.50009 14.5261 9.27623 14.75 9.00009 14.75H8.00009C7.72395 14.75 7.50009 14.5261 7.50009 14.25V13.25ZM8.00009 15.75C7.72395 15.75 7.50009 15.9739 7.50009 16.25V17.25C7.50009 17.5261 7.72395 17.75 8.00009 17.75H9.00009C9.27623 17.75 9.50009 17.5261 9.50009 17.25V16.25C9.50009 15.9739 9.27623 15.75 9.00009 15.75H8.00009ZM11.0001 13.25C11.0001 12.9739 11.2239 12.75 11.5001 12.75H12.5001C12.7762 12.75 13.0001 12.9739 13.0001 13.25V14.25C13.0001 14.5261 12.7762 14.75 12.5001 14.75H11.5001C11.2239 14.75 11.0001 14.5261 11.0001 14.25V13.25ZM11.5001 15.75C11.2239 15.75 11.0001 15.9739 11.0001 16.25V17.25C11.0001 17.5261 11.2239 17.75 11.5001 17.75H11.7596C11.7533 17.8408 11.75 17.9324 11.75 18.0248C11.75 18.6385 11.8946 19.2229 12.1534 19.7561C12.347 20.1549 12.6032 20.5226 12.9082 20.8535C12.8535 20.9243 12.7921 21.002 12.7252 21.0866L12.7167 21.0973C12.5747 21.2769 12.4033 21.4937 12.284 21.6782C12.228 21.7648 12.1461 21.9 12.098 22.051C12.0745 22.1245 12.037 22.2675 12.0596 22.4411C12.0865 22.6489 12.2001 22.8795 12.4354 23.0241C12.6152 23.1345 12.7924 23.1482 12.8794 23.1498C12.9786 23.1517 13.0681 23.1387 13.1343 23.126C13.2673 23.1005 13.4058 23.0561 13.5273 23.0127C13.7743 22.9244 14.0699 22.796 14.3355 22.6804L14.3588 22.6703L14.3589 22.6702C14.6293 22.5525 14.8715 22.4471 15.0645 22.3754C15.1048 22.3605 15.1391 22.3485 15.1677 22.339C15.9533 22.6357 16.8298 22.7997 17.75 22.7997C19.3502 22.7997 20.8266 22.3033 21.9186 21.4661C23.0114 20.6283 23.75 19.4182 23.75 18.0248C23.75 15.3887 21.1969 13.4901 18.3319 13.272C18.1403 13.2575 17.9462 13.25 17.75 13.25C17.3229 13.25 16.9046 13.2854 16.5001 13.3531V13.25C16.5001 12.9739 16.2762 12.75 16.0001 12.75H15.0001C14.7239 12.75 14.5001 12.9739 14.5001 13.25V14.0057C14.1712 14.1738 13.8635 14.3674 13.5814 14.5836C13.1461 14.9173 12.767 15.3101 12.4684 15.75H11.5001ZM13.25 18.0248C13.25 17.1954 13.6867 16.393 14.494 15.7741C15.3021 15.1546 16.4507 14.75 17.75 14.75C17.9082 14.75 18.0643 14.756 18.2181 14.7677C20.6591 14.9535 22.25 16.487 22.25 18.0248C22.25 18.8543 21.8133 19.6567 21.006 20.2756C20.1979 20.8951 19.0493 21.2997 17.75 21.2997C16.9483 21.2997 16.201 21.1454 15.5553 20.8796C15.3895 20.8114 15.2376 20.8118 15.161 20.8156C15.0726 20.82 14.9914 20.8349 14.9276 20.8494C14.8084 20.8764 14.6829 20.9178 14.5672 20.9601C14.5828 20.8957 14.5954 20.8159 14.5933 20.7262C14.5895 20.5578 14.53 20.3155 14.3146 20.1298C13.9554 19.82 13.682 19.4701 13.5028 19.101C13.3373 18.7601 13.25 18.3986 13.25 18.0248Z" fill="#088736"/>
</svg>
