<svg width="24" height="24" viewBox="0 0 24 24" fill="none" xmlns="http://www.w3.org/2000/svg">
<path id="fill" fill-rule="evenodd" clip-rule="evenodd" d="M8.50009 4.75C8.91431 4.75 9.25009 5.08579 9.25009 5.5V6.25H14.7501V5.5C14.7501 5.08579 15.0859 4.75 15.5001 4.75C15.9143 4.75 16.2501 5.08579 16.2501 5.5V6.25H19.0001C19.4143 6.25 19.7501 6.58579 19.7501 7V10.25V10.5V11.0625C19.7501 11.4767 19.4143 11.8125 19.0001 11.8125C18.6506 11.8125 18.357 11.5735 18.2737 11.25H5.75009V19.25H8.50009H10.2501C10.6643 19.25 11.0001 19.5858 11.0001 20C11.0001 20.4142 10.6643 20.75 10.2501 20.75H8.50009H5.00009C4.58588 20.75 4.25009 20.4142 4.25009 20V7C4.25009 6.58579 4.58588 6.25 5.00009 6.25H7.75009V5.5C7.75009 5.08579 8.08588 4.75 8.50009 4.75ZM18.2501 7.75V9.75H5.75009V7.75H7.75009V8.5C7.75009 8.91421 8.08588 9.25 8.50009 9.25C8.91431 9.25 9.25009 8.91421 9.25009 8.5V7.75H14.7501V8.5C14.7501 8.91421 15.0859 9.25 15.5001 9.25C15.9143 9.25 16.2501 8.91421 16.2501 8.5V7.75H18.2501ZM8.00009 12.75C7.72395 12.75 7.50009 12.9739 7.50009 13.25V14.25C7.50009 14.5261 7.72395 14.75 8.00009 14.75H9.00009C9.27623 14.75 9.50009 14.5261 9.50009 14.25V13.25C9.50009 12.9739 9.27623 12.75 9.00009 12.75H8.00009ZM7.50009 16.25C7.50009 15.9739 7.72395 15.75 8.00009 15.75H9.00009C9.27623 15.75 9.50009 15.9739 9.50009 16.25V17.25C9.50009 17.5261 9.27623 17.75 9.00009 17.75H8.00009C7.72395 17.75 7.50009 17.5261 7.50009 17.25V16.25ZM11.5001 12.75C11.2239 12.75 11.0001 12.9739 11.0001 13.25V14.25C11.0001 14.5261 11.2239 14.75 11.5001 14.75H12.5001C12.7762 14.75 13.0001 14.5261 13.0001 14.25V13.25C13.0001 12.9739 12.7762 12.75 12.5001 12.75H11.5001ZM11.0001 16.25C11.0001 15.9739 11.2239 15.75 11.5001 15.75H12.5001C12.7762 15.75 13.0001 15.9739 13.0001 16.25V17.25C13.0001 17.5261 12.7762 17.75 12.5001 17.75H11.5001C11.2239 17.75 11.0001 17.5261 11.0001 17.25V16.25ZM15.0001 12.75C14.7239 12.75 14.5001 12.9739 14.5001 13.25V14.25C14.5001 14.5261 14.7239 14.75 15.0001 14.75H16.0001C16.2762 14.75 16.5001 14.5261 16.5001 14.25V13.25C16.5001 12.9739 16.2762 12.75 16.0001 12.75H15.0001ZM20.3597 11.1816C20.6526 10.8887 21.1275 10.8887 21.4203 11.1816L23.6121 13.3734C23.905 13.6663 23.905 14.1412 23.6121 14.4341L22.1081 15.938C22.1072 15.939 22.1063 15.94 22.1053 15.9409C22.1043 15.9419 22.1034 15.9428 22.1024 15.9438L15.9409 22.1053C15.8288 22.2174 15.6841 22.2911 15.5275 22.3158L12.9248 22.7268C12.6877 22.7642 12.4471 22.686 12.2775 22.5163C12.1078 22.3466 12.0295 22.106 12.067 21.869L12.4779 19.2662C12.5027 19.1097 12.5763 18.965 12.6884 18.8529L18.8528 12.6885L20.3597 11.1816ZM19.3832 14.2794L13.9215 19.7411L13.7095 21.0843L15.0527 20.8722L20.5143 15.4106L19.3832 14.2794ZM21.575 14.3499L20.4438 13.2188L20.89 12.7726L22.0211 13.9037L21.575 14.3499Z" fill="#088736"/>
</svg>
