<?xml version="1.0" encoding="UTF-8"?>
<svg width="24px" height="24px" viewBox="0 0 24 24" version="1.1" xmlns="http://www.w3.org/2000/svg" xmlns:xlink="http://www.w3.org/1999/xlink">
    <!-- Generator: Sketch 54.1 (76490) - https://sketchapp.com -->
    <title>basics/icon/common/calendar</title>
    <desc>Created with Sketch.</desc>
    <g id="basics/icon/common/calendar" stroke="none" stroke-width="1" fill="none" fill-rule="evenodd">
        <g id="@icon/common/calendar">
            <rect id="Rectangle" x="0" y="0" width="24" height="24"></rect>
            <g id="fill" transform="translate(3.000000, 3.000000)" fill="#333333" fill-rule="nonzero">
                <path d="M12.25,3 L5.75,3 L5.75,4.75 L4.25,4.75 L4.25,3 L1.506,3 L1.50477778,5.75 L16.4987778,5.75 L16.5,3 L13.75,3 L13.75,4.75 L12.25,4.75 L12.25,3 Z M13.75,1.5 L16.875,1.5 C17.496,1.5 18,2.116 18,2.875 L18,16.625 C18,17.384 17.496,18 16.875,18 L1.125,18 C0.504,18 0,17.384 0,16.625 L0,2.875 C0,2.116 0.504,1.5 1.125,1.5 L4.25,1.5 L4.25,0.25 L5.75,0.25 L5.75,1.5 L12.25,1.5 L12.25,0.25 L13.75,0.25 L13.75,1.5 Z M16.4981111,7.25 L1.50411111,7.25 L1.5,16.5 L16.494,16.5 L16.4981111,7.25 Z M6,10 C6,10.552 5.552,11 5,11 C4.448,11 4,10.552 4,10 C4,9.448 4.448,9 5,9 C5.552,9 6,9.448 6,10 Z M10,10 C10,10.552 9.552,11 9,11 C8.448,11 8,10.552 8,10 C8,9.448 8.448,9 9,9 C9.552,9 10,9.448 10,10 Z M14,10 C14,10.552 13.552,11 13,11 C12.448,11 12,10.552 12,10 C12,9.448 12.448,9 13,9 C13.552,9 14,9.448 14,10 Z M6,13.5 C6,14.052 5.552,14.5 5,14.5 C4.448,14.5 4,14.052 4,13.5 C4,12.948 4.448,12.5 5,12.5 C5.552,12.5 6,12.948 6,13.5 Z M10,13.5 C10,14.052 9.552,14.5 9,14.5 C8.448,14.5 8,14.052 8,13.5 C8,12.948 8.448,12.5 9,12.5 C9.552,12.5 10,12.948 10,13.5 Z M14,13.5 C14,14.052 13.552,14.5 13,14.5 C12.448,14.5 12,14.052 12,13.5 C12,12.948 12.448,12.5 13,12.5 C13.552,12.5 14,12.948 14,13.5 Z" id="Fill-1"></path>
            </g>
        </g>
    </g>
</svg>