<svg width="24" height="24" viewBox="0 0 24 24" fill="none" xmlns="http://www.w3.org/2000/svg">
<path id="fill" fill-rule="evenodd" clip-rule="evenodd" d="M17.25 5.47704C17.25 5.30017 17.0714 5.17923 16.9072 5.24492L8.75 8.50778V13.3468C8.89226 13.4139 9.01768 13.5136 9.11537 13.6384L16.9072 16.7551C17.0714 16.8208 17.25 16.6998 17.25 16.523V5.47704ZM9.88696 15.5626L16.3501 18.1478C17.4996 18.6076 18.75 17.761 18.75 16.523V5.47704C18.75 4.23897 17.4996 3.3924 16.3501 3.8522L7.85556 7.25H5C4.0335 7.25 3.25 8.03351 3.25 9V13C3.25 13.9665 4.0335 14.75 5 14.75H5.16442L5.88128 17.6174C6.19822 18.8852 7.52733 19.6148 8.76703 19.2016C9.9733 18.7995 10.6046 17.4762 10.1581 16.2857L9.88696 15.5626ZM7.25 13.25H5C4.86193 13.25 4.75 13.1381 4.75 13V9C4.75 8.86193 4.86193 8.75 5 8.75H7.25V13.25ZM7.85556 14.75L8.00226 14.8087L8.75363 16.8123C8.90157 17.2068 8.69239 17.6453 8.29269 17.7785C7.88191 17.9155 7.44151 17.6737 7.33649 17.2536L6.71058 14.75L7.85556 14.75Z" fill="#088736"/>
</svg>
