<svg width="24" height="25" viewBox="0 0 24 25" fill="none" xmlns="http://www.w3.org/2000/svg">
<path id="fill" d="M12.5207 14.272H11.2407L10.9607 9.35203L10.894 7.4987H12.8673L12.8007 9.35203L12.5207 14.272Z" fill="#D6D6D6"/>
<path id="fill" d="M13.1073 16.5387C13.1073 17.2587 12.574 17.8187 11.8807 17.8187C11.1873 17.8187 10.6673 17.2587 10.6673 16.5387C10.6673 15.8054 11.1873 15.2587 11.8807 15.2587C12.574 15.2587 13.1073 15.8054 13.1073 16.5387Z" fill="#D6D6D6"/>
<path id="fill" fill-rule="evenodd" clip-rule="evenodd" d="M12.0007 0.832031C5.55733 0.832031 0.333984 6.05538 0.333984 12.4987C0.333984 18.942 5.55733 24.1654 12.0007 24.1654C18.444 24.1654 23.6673 18.942 23.6673 12.4987C23.6673 6.05538 18.444 0.832031 12.0007 0.832031ZM2.33398 12.4987C2.33398 7.15995 6.6619 2.83203 12.0007 2.83203C17.3394 2.83203 21.6673 7.15995 21.6673 12.4987C21.6673 17.8375 17.3394 22.1654 12.0007 22.1654C6.6619 22.1654 2.33398 17.8375 2.33398 12.4987Z" fill="#D6D6D6"/>
</svg>
