<svg width="24" height="24" viewBox="0 0 24 24" fill="none" xmlns="http://www.w3.org/2000/svg">
<path id="fill" fill-rule="evenodd" clip-rule="evenodd" d="M15.5001 4.75C15.0859 4.75 14.7501 5.08579 14.7501 5.5V17.75H14.2501V8.5C14.2501 8.08579 13.9143 7.75 13.5001 7.75H10.5001C10.0859 7.75 9.75009 8.08579 9.75009 8.5V17.75H9.25009V13.5C9.25009 13.0858 8.91431 12.75 8.50009 12.75H5.50009C5.08588 12.75 4.75009 13.0858 4.75009 13.5V17.75H4.00009C3.58588 17.75 3.25009 18.0858 3.25009 18.5C3.25009 18.9142 3.58588 19.25 4.00009 19.25H20.0001C20.4143 19.25 20.7501 18.9142 20.7501 18.5C20.7501 18.0858 20.4143 17.75 20.0001 17.75H19.2501V5.5C19.2501 5.08579 18.9143 4.75 18.5001 4.75H15.5001ZM17.7501 17.75V6.25H16.2501V17.75H17.7501ZM11.2501 9.25H12.7501V17.75H11.2501V9.25ZM7.75009 17.75V14.25H6.25009V17.75H7.75009Z" fill="#088736"/>
</svg>
