<svg width="24" height="24" viewBox="0 0 24 24" fill="none" xmlns="http://www.w3.org/2000/svg">
<path id="fill" fill-rule="evenodd" clip-rule="evenodd" d="M18 3.75C16.7574 3.75 15.75 4.75736 15.75 6C15.75 6.34734 15.8287 6.67629 15.9692 6.97C15.9501 6.98927 15.9317 7.00976 15.9143 7.03148L14.2411 9.12299C13.8854 8.88728 13.4587 8.75 13 8.75C11.7574 8.75 10.75 9.75736 10.75 11C10.75 11.0971 10.7562 11.1929 10.7681 11.2868L10.7628 11.2885L7.87242 12.252C7.46897 11.6479 6.78095 11.25 6 11.25C4.75736 11.25 3.75 12.2574 3.75 13.5C3.75 14.7426 4.75736 15.75 6 15.75C7.17167 15.75 8.13416 14.8544 8.24029 13.7105L11.2372 12.7115C11.3083 12.6878 11.3735 12.6545 11.4318 12.6135C11.8371 13.0074 12.3902 13.25 13 13.25C14.2426 13.25 15.25 12.2426 15.25 11C15.25 10.7826 15.2192 10.5724 15.1616 10.3735L17.0342 8.03278C17.3269 8.17205 17.6543 8.25 18 8.25C19.2426 8.25 20.25 7.24264 20.25 6C20.25 4.75736 19.2426 3.75 18 3.75ZM17.25 6C17.25 5.58579 17.5858 5.25 18 5.25C18.4142 5.25 18.75 5.58579 18.75 6C18.75 6.41421 18.4142 6.75 18 6.75C17.5858 6.75 17.25 6.41421 17.25 6ZM5.25 13.5C5.25 13.0858 5.58579 12.75 6 12.75C6.41421 12.75 6.75 13.0858 6.75 13.5C6.75 13.9142 6.41421 14.25 6 14.25C5.58579 14.25 5.25 13.9142 5.25 13.5ZM13 10.25C12.5858 10.25 12.25 10.5858 12.25 11C12.25 11.4142 12.5858 11.75 13 11.75C13.4142 11.75 13.75 11.4142 13.75 11C13.75 10.5858 13.4142 10.25 13 10.25Z" fill="#088736"/>
<path id="fill" d="M4 17.75C3.58579 17.75 3.25 18.0858 3.25 18.5C3.25 18.9142 3.58579 19.25 4 19.25H20C20.4142 19.25 20.75 18.9142 20.75 18.5C20.75 18.0858 20.4142 17.75 20 17.75H4Z" fill="#088736"/>
</svg>
