<svg width="24" height="24" viewBox="0 0 24 24" fill="none" xmlns="http://www.w3.org/2000/svg">
<path id="fill" fill-rule="evenodd" clip-rule="evenodd" d="M14 2.25C13.5858 2.25 13.25 2.58579 13.25 3V10C13.25 10.4142 13.5858 10.75 14 10.75H21C21.4142 10.75 21.75 10.4142 21.75 10C21.75 5.71979 18.2802 2.25 14 2.25ZM14.75 9.25V3.79454C17.6023 4.13565 19.8644 6.39773 20.2055 9.25H14.75Z" fill="#088736"/>
<path id="fill" fill-rule="evenodd" clip-rule="evenodd" d="M11 4.25C6.16751 4.25 2.25 8.16751 2.25 13C2.25 17.8325 6.16751 21.75 11 21.75C15.8325 21.75 19.75 17.8325 19.75 13C19.75 12.5858 19.4142 12.25 19 12.25H11.75V5C11.75 4.58579 11.4142 4.25 11 4.25ZM3.75 13C3.75 9.24918 6.59833 6.16362 10.25 5.78832V13C10.25 13.4142 10.5858 13.75 11 13.75H18.2117C17.8364 17.4017 14.7508 20.25 11 20.25C6.99594 20.25 3.75 17.0041 3.75 13Z" fill="#088736"/>
</svg>
