<svg width="24" height="24" viewBox="0 0 24 24" fill="none" xmlns="http://www.w3.org/2000/svg">
<path id="fill" d="M12 13.25C12.6904 13.25 13.25 12.6904 13.25 12C13.25 11.3096 12.6904 10.75 12 10.75C11.3096 10.75 10.75 11.3096 10.75 12C10.75 12.6904 11.3096 13.25 12 13.25Z" fill="#088736"/>
<path id="fill" d="M9.75 12C9.75 12.6904 9.19036 13.25 8.5 13.25C7.80965 13.25 7.25 12.6904 7.25 12C7.25 11.3096 7.80965 10.75 8.5 10.75C9.19036 10.75 9.75 11.3096 9.75 12Z" fill="#088736"/>
<path id="fill" d="M15.5 13.25C16.1904 13.25 16.75 12.6904 16.75 12C16.75 11.3096 16.1904 10.75 15.5 10.75C14.8096 10.75 14.25 11.3096 14.25 12C14.25 12.6904 14.8096 13.25 15.5 13.25Z" fill="#088736"/>
<path id="fill" fill-rule="evenodd" clip-rule="evenodd" d="M12 5.25C9.64427 5.25 7.4827 5.96519 5.89315 7.15736C4.30336 8.3497 3.25 10.0542 3.25 12C3.25 13.5992 3.96272 15.038 5.09989 16.1608C4.92043 16.4009 4.67273 16.6976 4.40428 17.019L4.40219 17.0215C4.11769 17.3622 3.80674 17.7346 3.59181 18.0375C3.48904 18.1823 3.37413 18.3578 3.30236 18.5307C3.26897 18.6111 3.21452 18.7606 3.2165 18.9413C3.21888 19.1581 3.311 19.4609 3.61354 19.6428C3.81021 19.761 4.00889 19.7754 4.11966 19.7755C4.24295 19.7757 4.36088 19.7572 4.45919 19.7363C4.65662 19.6945 4.87564 19.6209 5.08861 19.5399C5.51864 19.3765 6.041 19.1374 6.53504 18.9103L6.60065 18.8801C7.08441 18.6576 7.54061 18.4478 7.91158 18.3009C8.10638 18.2238 8.25411 18.1736 8.35566 18.1479L8.3657 18.1454C9.47555 18.5348 10.7071 18.75 12 18.75C14.3557 18.75 16.5173 18.0348 18.1069 16.8426C19.6966 15.6503 20.75 13.9459 20.75 12C20.75 10.0542 19.6966 8.3497 18.1069 7.15736C16.5173 5.96519 14.3557 5.25 12 5.25ZM4.75 12C4.75 10.6321 5.4875 9.33659 6.79315 8.35736C8.09902 7.37795 9.93745 6.75 12 6.75C14.0626 6.75 15.901 7.37795 17.2069 8.35736C18.5125 9.33659 19.25 10.6321 19.25 12C19.25 13.3679 18.5125 14.6634 17.2069 15.6426C15.901 16.622 14.0626 17.25 12 17.25C10.8306 17.25 9.73024 17.0479 8.75745 16.6924C8.57715 16.6265 8.40753 16.6299 8.30695 16.6379C8.19453 16.6468 8.08462 16.6691 7.98748 16.6937C7.79301 16.743 7.57551 16.8207 7.3593 16.9063C6.94915 17.0687 6.45879 17.2943 5.99088 17.5095L5.91934 17.5424C6.08638 17.3385 6.24595 17.1377 6.37411 16.9598C6.48073 16.8118 6.59517 16.6399 6.67042 16.4733C6.70607 16.3944 6.75863 16.2621 6.77144 16.1036C6.78492 15.9368 6.75732 15.6281 6.48565 15.3972C5.37201 14.4509 4.75 13.2577 4.75 12ZM5.30342 15.8558L5.30259 15.8576C5.30481 15.852 5.3055 15.8512 5.30342 15.8558Z" fill="#088736"/>
</svg>
