<?xml version="1.0" encoding="UTF-8"?>
<svg width="24px" height="24px" viewBox="0 0 24 24" version="1.1" xmlns="http://www.w3.org/2000/svg" xmlns:xlink="http://www.w3.org/1999/xlink">
    <!-- Generator: Sketch 54.1 (76490) - https://sketchapp.com -->
    <title></title>
    <desc>Created with Sketch.</desc>
    <g id="basics/icon/common/delete" stroke="none" stroke-width="1" fill="none" fill-rule="evenodd">
        <g id="@icon/common/delete">
            <rect id="Rectangle" x="0" y="0" width="24" height="24"></rect>
            <g id="fill" transform="translate(3.000000, 2.000000)" fill="#333333" fill-rule="nonzero">
                <path d="M3.5,5 L3.5,17.5 C3.5,17.7761424 3.72385763,18 4,18 L14,18 C14.2761424,18 14.5,17.7761424 14.5,17.5 L14.5,5 L3.5,5 Z M2,3.5 L3.5,3.5 L3.5,2 C3.5,0.8954305 4.3954305,2.02906125e-16 5.5,0 L12.5,0 C13.6045695,-2.02906125e-16 14.5,0.8954305 14.5,2 L14.5,3.5 L16,3.5 L17,3.5 C17.4142136,3.5 17.75,3.83578644 17.75,4.25 C17.75,4.66421356 17.4142136,5 17,5 L16,5 L16,17.5 C16,18.6045695 15.1045695,19.5 14,19.5 L4,19.5 C2.8954305,19.5 2,18.6045695 2,17.5 L2,5 L1,5 C0.585786438,5 0.25,4.66421356 0.25,4.25 C0.25,3.83578644 0.585786438,3.5 1,3.5 L2,3.5 Z M5,3.5 L13,3.5 L13,2 C13,1.72385763 12.7761424,1.5 12.5,1.5 L5.5,1.5 C5.22385763,1.5 5,1.72385763 5,2 L5,3.5 Z M8.25,9 C8.25,8.58578644 8.58578644,8.25 9,8.25 C9.41421356,8.25 9.75,8.58578644 9.75,9 L9.75,14 C9.75,14.4142136 9.41421356,14.75 9,14.75 C8.58578644,14.75 8.25,14.4142136 8.25,14 L8.25,9 Z M5.25,9 C5.25,8.58578644 5.58578644,8.25 6,8.25 C6.41421356,8.25 6.75,8.58578644 6.75,9 L6.75,14 C6.75,14.4142136 6.41421356,14.75 6,14.75 C5.58578644,14.75 5.25,14.4142136 5.25,14 L5.25,9 Z M11.25,9 C11.25,8.58578644 11.5857864,8.25 12,8.25 C12.4142136,8.25 12.75,8.58578644 12.75,9 L12.75,14 C12.75,14.4142136 12.4142136,14.75 12,14.75 C11.5857864,14.75 11.25,14.4142136 11.25,14 L11.25,9 Z" id="Combined-Shape"></path>
            </g>
        </g>
    </g>
</svg>