<svg width="24" height="24" viewBox="0 0 24 24" fill="none" xmlns="http://www.w3.org/2000/svg">
<path id="fill" fill-rule="evenodd" clip-rule="evenodd" d="M5.25 5C5.25 4.58579 5.58579 4.25 6 4.25H13.5C13.7163 4.25 13.922 4.34336 14.0644 4.50612L17.5644 8.50612C17.6841 8.64284 17.75 8.81833 17.75 9V12C17.75 12.4142 17.4142 12.75 17 12.75C16.5858 12.75 16.25 12.4142 16.25 12V9.2818L13.1597 5.75H6.75V18.25H11.5C11.9142 18.25 12.25 18.5858 12.25 19C12.25 19.4142 11.9142 19.75 11.5 19.75H6C5.58579 19.75 5.25 19.4142 5.25 19V5ZM7.75 9.5C7.75 9.08579 8.08579 8.75 8.5 8.75H11C11.4142 8.75 11.75 9.08579 11.75 9.5C11.75 9.91421 11.4142 10.25 11 10.25H8.5C8.08579 10.25 7.75 9.91421 7.75 9.5ZM7.75 12.5C7.75 12.0858 8.08579 11.75 8.5 11.75H14C14.4142 11.75 14.75 12.0858 14.75 12.5C14.75 12.9142 14.4142 13.25 14 13.25H8.5C8.08579 13.25 7.75 12.9142 7.75 12.5ZM17.3846 15.75C15.9296 15.75 14.75 16.9296 14.75 18.3846C14.75 19.8397 15.9296 21.0192 17.3846 21.0192C18.8397 21.0192 20.0192 19.8397 20.0192 18.3846C20.0192 16.9296 18.8397 15.75 17.3846 15.75ZM13.25 18.3846C13.25 16.1011 15.1011 14.25 17.3846 14.25C19.6681 14.25 21.5192 16.1011 21.5192 18.3846C21.5192 19.2554 21.25 20.0633 20.7903 20.7297L22.5303 22.4697C22.8232 22.7626 22.8232 23.2374 22.5303 23.5303C22.2374 23.8232 21.7625 23.8232 21.4696 23.5303L19.7297 21.7903C19.0633 22.25 18.2554 22.5192 17.3846 22.5192C15.1011 22.5192 13.25 20.6681 13.25 18.3846ZM7.75 15.5C7.75 15.0858 8.08579 14.75 8.5 14.75H12C12.4142 14.75 12.75 15.0858 12.75 15.5C12.75 15.9142 12.4142 16.25 12 16.25H8.5C8.08579 16.25 7.75 15.9142 7.75 15.5Z" fill="#088736"/>
</svg>
