<?xml version="1.0" encoding="UTF-8"?>
<svg width="24px" height="24px" viewBox="0 0 24 24" version="1.1" xmlns="http://www.w3.org/2000/svg" xmlns:xlink="http://www.w3.org/1999/xlink">
    <!-- Generator: Sketch 54.1 (76490) - https://sketchapp.com -->
    <title></title>
    <desc>Created with Sketch.</desc>
    <g id="basics/icon/common/edit" stroke="none" stroke-width="1" fill="none" fill-rule="evenodd">
        <g id="@icon/common/edit">
            <rect id="Rectangle" x="0" y="0" width="24" height="24"></rect>
            <g id="fill" transform="translate(3.000000, 3.000000)" fill="#333333" fill-rule="nonzero">
                <path d="M15.6139398,4.3802 L13.6201,2.38636017 L2.85549563,13.1509645 L2.35690105,15.6430653 L4.84983548,15.1443044 L15.6139398,4.3802 Z M5.20804625,16.6023624 L2.34156413,17.1758592 C1.43985661,17.3547694 0.64466443,16.5603979 0.824174371,15.6580635 L1.39716449,12.7941129 C1.44718652,12.5440028 1.57049985,12.31464 1.75026991,12.1348699 L12.7082699,1.17686991 C13.2121631,0.672976695 14.0280369,0.672976695 14.5319301,1.17686991 L16.8229301,3.46786991 C17.3268233,3.97176313 17.3268233,4.78863687 16.8229301,5.29253009 L5.86493009,16.2505301 C5.68542793,16.4300322 5.45654699,16.5521843 5.20804625,16.6023624 Z M11.8591301,3.08606991 L14.9141301,6.14106991 L13.8534699,7.20173009 L10.7984699,4.14673009 L11.8591301,3.08606991 Z" id="Stroke-1"></path>
            </g>
        </g>
    </g>
</svg>