<?xml version="1.0" encoding="UTF-8"?>
<svg width="24px" height="24px" viewBox="0 0 24 24" version="1.1" xmlns="http://www.w3.org/2000/svg" xmlns:xlink="http://www.w3.org/1999/xlink">
    <!-- Generator: Sketch 54.1 (76490) - https://sketchapp.com -->
    <title></title>
    <desc>Created with Sketch.</desc>
    <g id="basics/icon/common/excel" stroke="none" stroke-width="1" fill="none" fill-rule="evenodd">
        <g id="@icon/common/excel">
            <rect id="Rectangle" x="0" y="0" width="24" height="24"></rect>
            <g id="fill" transform="translate(2.000000, 2.000000)">
                <path id="fill" d="M11.5,13.75 L16,13.75 L16,15.25 L11.4685154,15.25 C11.3576161,15.681151 10.966529,16 10.5,16 L5.75,16 L5.75,18.25 L17.821,18.25 L17.821,1.75 L5.75,1.75 L5.75,4 L10.5,4 C11.053,4 11.5,4.448 11.5,5 L11.5,5.75 L16,5.75 L16,7.25 L11.5,7.25 L11.5,9.75 L16,9.75 L16,11.25 L11.5,11.25 L11.5,13.75 Z M4.25,16 L1.5,16 C0.947,16 0.5,15.552 0.5,15 L0.5,5 C0.5,4.448 0.947,4 1.5,4 L4.25,4 L4.25,1 C4.25,0.585786438 4.58578644,0.25 5,0.25 L18.571,0.25 C18.9852136,0.25 19.321,0.585786438 19.321,1 L19.321,19 C19.321,19.4142136 18.9852136,19.75 18.571,19.75 L5,19.75 C4.58578644,19.75 4.25,19.4142136 4.25,19 L4.25,16 Z" id="Combined-Shape" fill="#333333" fill-rule="nonzero"></path>
                <g id="Group-12" transform="translate(0.000000, 4.000000)" fill="#FFFFFF">
                    <path id="fill" d="M4.9307,5.9053 L3.0777,2.7913 L4.9887,2.7913 L5.5637,3.9393 C5.7167,4.2403 5.8797,4.5773 6.0807,4.9913 L6.1197,4.9913 C6.2837,4.5773 6.4367,4.2403 6.5807,3.9393 L7.0987,2.7913 L8.9107,2.7913 L7.0697,5.9743 L9.0367,9.2083 L7.1277,9.2083 L6.4657,7.9583 C6.2917,7.6213 6.1297,7.2853 5.9377,6.8883 L5.8997,6.8883 C5.7267,7.2853 5.5737,7.6213 5.4097,7.9583 L4.7957,9.2083 L2.9627,9.2083 L4.9307,5.9053 Z" id="Fill-10"></path>
                </g>
            </g>
        </g>
    </g>
</svg>