<svg width="24" height="24" viewBox="0 0 24 24" fill="none" xmlns="http://www.w3.org/2000/svg">
<path fill-rule="evenodd" clip-rule="evenodd" d="M4.25024 7.5C4.25024 7.08579 4.58603 6.75 5.00024 6.75H19.0002C19.4145 6.75 19.7502 7.08579 19.7502 7.5C19.7502 7.91421 19.4145 8.25 19.0002 8.25H5.00024C4.58603 8.25 4.25024 7.91421 4.25024 7.5ZM4.25024 12C4.25024 11.5858 4.58603 11.25 5.00024 11.25H15.0002C15.4145 11.25 15.7502 11.5858 15.7502 12C15.7502 12.4142 15.4145 12.75 15.0002 12.75H5.00024C4.58603 12.75 4.25024 12.4142 4.25024 12ZM5.00024 15.75C4.58603 15.75 4.25024 16.0858 4.25024 16.5C4.25024 16.9142 4.58603 17.25 5.00024 17.25H10.0002C10.4145 17.25 10.7502 16.9142 10.7502 16.5C10.7502 16.0858 10.4145 15.75 10.0002 15.75H5.00024ZM14.2502 17.5C14.2502 17.0858 14.586 16.75 15.0002 16.75H16.7502V15C16.7502 14.5858 17.086 14.25 17.5002 14.25C17.9145 14.25 18.2502 14.5858 18.2502 15V16.75H20.0002C20.4145 16.75 20.7502 17.0858 20.7502 17.5C20.7502 17.9142 20.4145 18.25 20.0002 18.25H18.2502V20C18.2502 20.4142 17.9145 20.75 17.5002 20.75C17.086 20.75 16.7502 20.4142 16.7502 20V18.25H15.0002C14.586 18.25 14.2502 17.9142 14.2502 17.5Z" fill="#088736"/>
</svg>
