<svg width="24" height="24" viewBox="0 0 24 24" fill="none" xmlns="http://www.w3.org/2000/svg">
<path id="fill" d="M4.25024 7.5C4.25024 7.08579 4.58603 6.75 5.00024 6.75H19.0002C19.4145 6.75 19.7502 7.08579 19.7502 7.5C19.7502 7.91421 19.4145 8.25 19.0002 8.25H5.00024C4.58603 8.25 4.25024 7.91421 4.25024 7.5Z" fill="#088736"/>
<path id="fill" d="M4.25024 12C4.25024 11.5858 4.58603 11.25 5.00024 11.25H15.0002C15.4145 11.25 15.7502 11.5858 15.7502 12C15.7502 12.4142 15.4145 12.75 15.0002 12.75H5.00024C4.58603 12.75 4.25024 12.4142 4.25024 12Z" fill="#088736"/>
<path id="fill" d="M5.00024 15.75C4.58603 15.75 4.25024 16.0858 4.25024 16.5C4.25024 16.9142 4.58603 17.25 5.00024 17.25H10.0002C10.4145 17.25 10.7502 16.9142 10.7502 16.5C10.7502 16.0858 10.4145 15.75 10.0002 15.75H5.00024Z" fill="#088736"/>
</svg>
