<?xml version="1.0" encoding="UTF-8"?>
<svg width="24px" height="24px" viewBox="0 0 24 24" version="1.1" xmlns="http://www.w3.org/2000/svg" xmlns:xlink="http://www.w3.org/1999/xlink">
    <!-- Generator: Sketch 54.1 (76490) - https://sketchapp.com -->
    <title></title>
    <desc>Created with Sketch.</desc>
    <g id="basics/icon/common/global-menu" stroke="none" stroke-width="1" fill="none" fill-rule="evenodd">
        <g id="@icon/common/global-menu">
            <rect id="Rectangle" x="0" y="0" width="24" height="24"></rect>
            <g id="fill" transform="translate(4.000000, 4.000000)" fill="#333333" fill-rule="nonzero">
                <path d="M0.25,0 L3.75,0 C3.88807119,-2.53632657e-17 4,0.111928813 4,0.25 L4,3.75 C4,3.88807119 3.88807119,4 3.75,4 L0.25,4 C0.111928813,4 1.69088438e-17,3.88807119 0,3.75 L0,0.25 C-1.69088438e-17,0.111928813 0.111928813,2.53632657e-17 0.25,0 Z M0.25,6 L3.75,6 C3.88807119,6 4,6.11192881 4,6.25 L4,9.75 C4,9.88807119 3.88807119,10 3.75,10 L0.25,10 C0.111928813,10 1.69088438e-17,9.88807119 0,9.75 L0,6.25 C-1.69088438e-17,6.11192881 0.111928813,6 0.25,6 Z M6.25,0 L9.75,0 C9.88807119,-2.53632657e-17 10,0.111928813 10,0.25 L10,3.75 C10,3.88807119 9.88807119,4 9.75,4 L6.25,4 C6.11192881,4 6,3.88807119 6,3.75 L6,0.25 C6,0.111928813 6.11192881,2.53632657e-17 6.25,0 Z M6.25,6 L9.75,6 C9.88807119,6 10,6.11192881 10,6.25 L10,9.75 C10,9.88807119 9.88807119,10 9.75,10 L6.25,10 C6.11192881,10 6,9.88807119 6,9.75 L6,6.25 C6,6.11192881 6.11192881,6 6.25,6 Z M12.25,0 L15.75,0 C15.8880712,-2.53632657e-17 16,0.111928813 16,0.25 L16,3.75 C16,3.88807119 15.8880712,4 15.75,4 L12.25,4 C12.1119288,4 12,3.88807119 12,3.75 L12,0.25 C12,0.111928813 12.1119288,2.53632657e-17 12.25,0 Z M12.25,6 L15.75,6 C15.8880712,6 16,6.11192881 16,6.25 L16,9.75 C16,9.88807119 15.8880712,10 15.75,10 L12.25,10 C12.1119288,10 12,9.88807119 12,9.75 L12,6.25 C12,6.11192881 12.1119288,6 12.25,6 Z M0.25,12 L3.75,12 C3.88807119,12 4,12.1119288 4,12.25 L4,15.75 C4,15.8880712 3.88807119,16 3.75,16 L0.25,16 C0.111928813,16 1.69088438e-17,15.8880712 0,15.75 L0,12.25 C-1.69088438e-17,12.1119288 0.111928813,12 0.25,12 Z M6.25,12 L9.75,12 C9.88807119,12 10,12.1119288 10,12.25 L10,15.75 C10,15.8880712 9.88807119,16 9.75,16 L6.25,16 C6.11192881,16 6,15.8880712 6,15.75 L6,12.25 C6,12.1119288 6.11192881,12 6.25,12 Z M12.25,12 L15.75,12 C15.8880712,12 16,12.1119288 16,12.25 L16,15.75 C16,15.8880712 15.8880712,16 15.75,16 L12.25,16 C12.1119288,16 12,15.8880712 12,15.75 L12,12.25 C12,12.1119288 12.1119288,12 12.25,12 Z" id="Combined-Shape"></path>
            </g>
        </g>
    </g>
</svg>