<svg width="24" height="24" viewBox="0 0 24 24" fill="none" xmlns="http://www.w3.org/2000/svg">
<path id="fill" fill-rule="evenodd" clip-rule="evenodd" d="M16.0999 5.25C18.1709 5.25 19.8499 6.92893 19.8499 9C19.8499 10.1195 19.3593 11.1244 18.5814 11.8115C20.182 12.5785 21.3722 14.0643 21.7348 15.8508C21.8172 16.2567 21.555 16.6526 21.149 16.735C20.7431 16.8174 20.3472 16.5551 20.2648 16.1492C19.8711 14.2096 18.1551 12.75 16.0998 12.75C14.4446 12.75 13.0089 13.6963 12.3068 15.0804C13.0152 15.8406 13.5201 16.793 13.7348 17.8508C13.8172 18.2567 13.555 18.6526 13.149 18.735C12.7431 18.8174 12.3472 18.5551 12.2648 18.1492C11.8711 16.2096 10.1551 14.75 8.09984 14.75C6.0446 14.75 4.32858 16.2096 3.93486 18.1492C3.85246 18.5551 3.45659 18.8174 3.05066 18.735C2.64472 18.6526 2.38244 18.2567 2.46484 17.8508C2.82748 16.0643 4.01771 14.5785 5.61829 13.8115C4.84041 13.1244 4.34986 12.1195 4.34986 11C4.34986 8.92893 6.02879 7.25 8.09986 7.25C10.1709 7.25 11.8499 8.92893 11.8499 11C11.8499 12.1195 11.3593 13.1244 10.5814 13.8115C10.7693 13.9016 10.9516 14.0015 11.1275 14.1107C11.7063 13.1167 12.5751 12.3115 13.6184 11.8116C12.8404 11.1245 12.3499 10.1195 12.3499 9C12.3499 6.92893 14.0288 5.25 16.0999 5.25ZM18.3499 9C18.3499 7.75736 17.3425 6.75 16.0999 6.75C14.8572 6.75 13.8499 7.75736 13.8499 9C13.8499 10.2426 14.8572 11.25 16.0999 11.25C17.3425 11.25 18.3499 10.2426 18.3499 9ZM10.3499 11C10.3499 9.75736 9.3425 8.75 8.09986 8.75C6.85721 8.75 5.84986 9.75736 5.84986 11C5.84986 12.2426 6.85721 13.25 8.09986 13.25C9.3425 13.25 10.3499 12.2426 10.3499 11Z" fill="#088736"/>
</svg>
