<?xml version="1.0" encoding="UTF-8"?>
<svg width="24px" height="24px" viewBox="0 0 24 24" version="1.1" xmlns="http://www.w3.org/2000/svg" xmlns:xlink="http://www.w3.org/1999/xlink">
    <!-- Generator: Sketch 54.1 (76490) - https://sketchapp.com -->
    <title>basics/icon/common/home</title>
    <desc>Created with Sketch.</desc>
    <g id="basics/icon/common/home" stroke="none" stroke-width="1" fill="none" fill-rule="evenodd">
        <g id="@icon/common/home">
            <rect id="Rectangle" x="0" y="0" width="24" height="24"></rect>
            <g id="fill" transform="translate(4.000000, 3.000000)" fill="#333333" fill-rule="nonzero">
                <path d="M1.75,6.9270891 L1.75,16.25 L5.15,16.25 L5.15,12.826087 C5.15,12.4118734 5.48578644,12.076087 5.9,12.076087 L10.45,12.076087 C10.8642136,12.076087 11.2,12.4118734 11.2,12.826087 L11.2,16.25 L14.25,16.25 L14.25,6.9270891 L8,1.958145 L1.75,6.9270891 Z M6.65,13.576087 L6.65,17 C6.65,17.4142136 6.31421356,17.75 5.9,17.75 L1,17.75 C0.585786438,17.75 0.25,17.4142136 0.25,17 L0.25,6.56521739 C0.25,6.33658075 0.354291414,6.12043077 0.533259612,5.9781455 L7.53325961,0.412928105 C7.80650362,0.195690632 8.19349638,0.195690632 8.46674039,0.412928105 L15.4667404,5.9781455 C15.6457086,6.12043077 15.75,6.33658075 15.75,6.56521739 L15.75,17 C15.75,17.4142136 15.4142136,17.75 15,17.75 L10.45,17.75 C10.0357864,17.75 9.7,17.4142136 9.7,17 L9.7,13.576087 L6.65,13.576087 Z" id="Rectangle"></path>
            </g>
        </g>
    </g>
</svg>