<?xml version="1.0" encoding="UTF-8"?>
<svg width="24px" height="24px" viewBox="0 0 24 24" version="1.1" xmlns="http://www.w3.org/2000/svg" xmlns:xlink="http://www.w3.org/1999/xlink">
    <!-- Generator: Sketch 54.1 (76490) - https://sketchapp.com -->
    <title>basics/icon/common/like</title>
    <desc>Created with Sketch.</desc>
    <g id="basics/icon/common/like" stroke="none" stroke-width="1" fill="none" fill-rule="evenodd">
        <g id="@icon/common/like">
            <rect id="Rectangle" x="0" y="0" width="24" height="24"></rect>
            <g id="outline" transform="translate(4.000000, 2.000000)" stroke="#333333" stroke-width="1.5">
                <rect id="Rectangle" x="0" y="8" width="4" height="10"></rect>
                <path d="M4,8 L6.51334258,1.29775312 C6.80607037,0.517145667 7.55231181,1.04132463e-15 8.38600094,8.8817842e-16 L9,0 C9.97509431,-1.79121919e-16 10.7655644,0.790470124 10.7655644,1.76556444 C10.7655644,1.83877361 10.761011,1.91191191 10.7519305,1.98455575 L10.2810087,5.75193053 C10.1440037,6.84797041 10.9214551,7.84755077 12.017495,7.98455575 C12.0997846,7.99484196 12.1826344,8 12.2655644,8 L15.3119387,8 C16.4165082,8 17.3119387,8.8954305 17.3119387,10 C17.3119387,10.1946491 17.2835233,10.3882557 17.2275913,10.5746958 L15.4275913,16.5746958 C15.1738009,17.4206637 14.3951551,18 13.5119387,18 L4,18 L4,8 Z" id="Path-4"></path>
            </g>
            <g id="fill" transform="translate(3.000000, 1.000000)" fill="#333333" fill-rule="nonzero">
                <path d="M4.25,18.25 L4.25,9.75 L1.75,9.75 L1.75,18.25 L4.25,18.25 Z M5.75,9.13600094 L5.75,18.25 L14.5119387,18.25 C15.063949,18.25 15.5506026,17.8879148 15.7092216,17.3591849 L17.5092216,11.3591849 C17.5441791,11.2426598 17.5619387,11.1216557 17.5619387,11 C17.5619387,10.3096441 17.0022946,9.75 16.3119387,9.75 L13.2655644,9.75 C13.1515356,9.75 13.0376172,9.7429077 12.9244689,9.72876416 C11.4174141,9.54038231 10.3484184,8.16595931 10.5368003,6.65890448 L11.0077221,2.8915297 C11.0129453,2.84974448 11.0155644,2.80767484 11.0155644,2.76556444 C11.0155644,2.20468369 10.5608808,1.75 10,1.75 L9.38600094,1.75 C8.86494524,1.75 8.39854434,2.07321604 8.21558946,2.5610957 L5.75,9.13600094 Z M5.75,19.75 L0.25,19.75 L0.25,8.25 L4.48024965,8.25 L6.8110957,2.03441054 C7.21359641,0.961075293 8.23967839,0.25 9.38600094,0.25 L10,0.25 C11.3893079,0.25 12.5155644,1.37625656 12.5155644,2.76556444 C12.5155644,2.86987238 12.5090767,2.97407934 12.4961389,3.0775818 L12.0252171,6.84495658 C11.939589,7.52998151 12.4254961,8.15471923 13.110521,8.24034735 C13.1619521,8.24677623 13.2137332,8.25 13.2655644,8.25 L16.3119387,8.25 C17.8307218,8.25 19.0619387,9.48121694 19.0619387,11 C19.0619387,11.2676426 19.0228675,11.5338516 18.945961,11.7902067 L17.145961,17.7902067 C16.7969992,18.9534126 15.7263613,19.75 14.5119387,19.75 L5.75,19.75 Z" id="Combined-Shape"></path>
            </g>
        </g>
    </g>
</svg>