<?xml version="1.0" encoding="UTF-8"?>
<svg width="24px" height="24px" viewBox="0 0 24 24" version="1.1" xmlns="http://www.w3.org/2000/svg" xmlns:xlink="http://www.w3.org/1999/xlink">
    <!-- Generator: Sketch 54.1 (76490) - https://sketchapp.com -->
    <title></title>
    <desc>Created with Sketch.</desc>
    <g id="basics/icon/common/list" stroke="none" stroke-width="1" fill="none" fill-rule="evenodd">
        <g id="@icon/common/sortSelect">
            <rect id="Rectangle" x="0" y="0" width="24" height="24"></rect>
            <g id="fill" transform="translate(2.875000, 3.250000)" fill="#333333" fill-rule="nonzero">
                <path d="M6.25,3.752 L6.25,1.748 L17.25,1.748 L17.25,3.752 L6.25,3.752 Z M6.25,9.752 L6.25,7.748 L17.25,7.748 L17.25,9.752 L6.25,9.752 Z M6,15.752 L6,13.748 L17,13.748 L17,15.752 L6,15.752 Z M3.75,2.75 C3.75,2.19780187 3.30237485,1.75 2.75,1.75 C2.19762515,1.75 1.75,2.19780187 1.75,2.75 C1.75,3.30219813 2.19762515,3.75 2.75,3.75 C3.30237485,3.75 3.75,3.30219813 3.75,2.75 Z M5.25,2.75 C5.25,4.13049275 4.13093454,5.25 2.75,5.25 C1.36906546,5.25 0.25,4.13049275 0.25,2.75 C0.25,1.36950725 1.36906546,0.25 2.75,0.25 C4.13093454,0.25 5.25,1.36950725 5.25,2.75 Z M3.75,14.75 C3.75,14.1978019 3.30237485,13.75 2.75,13.75 C2.19762515,13.75 1.75,14.1978019 1.75,14.75 C1.75,15.3021981 2.19762515,15.75 2.75,15.75 C3.30237485,15.75 3.75,15.3021981 3.75,14.75 Z M5.25,14.75 C5.25,16.1304927 4.13093454,17.25 2.75,17.25 C1.36906546,17.25 0.25,16.1304927 0.25,14.75 C0.25,13.3695073 1.36906546,12.25 2.75,12.25 C4.13093454,12.25 5.25,13.3695073 5.25,14.75 Z M3.75,8.75 C3.75,8.19780187 3.30237485,7.75 2.75,7.75 C2.19762515,7.75 1.75,8.19780187 1.75,8.75 C1.75,9.30219813 2.19762515,9.75 2.75,9.75 C3.30237485,9.75 3.75,9.30219813 3.75,8.75 Z M5.25,8.75 C5.25,10.1304927 4.13093454,11.25 2.75,11.25 C1.36906546,11.25 0.25,10.1304927 0.25,8.75 C0.25,7.36950725 1.36906546,6.25 2.75,6.25 C4.13093454,6.25 5.25,7.36950725 5.25,8.75 Z" id="Combined-Shape"></path>
            </g>
        </g>
    </g>
</svg>