<?xml version="1.0" encoding="UTF-8"?>
<svg width="24px" height="24px" viewBox="0 0 24 24" version="1.1" xmlns="http://www.w3.org/2000/svg" xmlns:xlink="http://www.w3.org/1999/xlink">
    <!-- Generator: Sketch 54.1 (76490) - https://sketchapp.com -->
    <title></title>
    <desc>Created with Sketch.</desc>
    <g id="basics/icon/common/lock" stroke="none" stroke-width="1" fill="none" fill-rule="evenodd">
        <g id="@icon/common/lock">
            <rect id="Rectangle" x="0" y="0" width="24" height="24"></rect>
            <g id="fill" transform="translate(5.000000, 3.000000)" fill="#333333" fill-rule="nonzero">
                <path d="M2.8213,6.1071 L2.8213,4.2859 C2.8213,1.98568644 4.70008644,0.1069 7.0003,0.1069 C9.29970251,0.1069 11.1783,1.98587541 11.1783,4.2859 L11.1783,6.1071 L13.0001,6.1071 C13.4143136,6.1071 13.7501,6.44288644 13.7501,6.8571 L13.7501,15.4291 C13.7501,16.7860364 12.6425909,17.8931 11.2861,17.8931 L2.7141,17.8931 C1.35688644,17.8931 0.2501,16.7863136 0.2501,15.4291 L0.2501,6.8571 C0.2501,6.44288644 0.585886438,6.1071 1.0001,6.1071 L2.8213,6.1071 Z M4.3213,6.1071 L9.6783,6.1071 L9.6783,4.2859 C9.6783,2.814235 8.47120783,1.6069 7.0003,1.6069 C5.52851356,1.6069 4.3213,2.81411356 4.3213,4.2859 L4.3213,6.1071 Z M1.7501,7.6071 L1.7501,15.4291 C1.7501,15.9578864 2.18531356,16.3931 2.7141,16.3931 L11.2861,16.3931 C11.8142988,16.3931 12.2501,15.9574741 12.2501,15.4291 L12.2501,7.6071 L1.7501,7.6071 Z M7,10.5 C5.069,10.5 5.066,13.5 7,13.5 C8.931,13.5 8.934,10.5 7,10.5 Z" id="Combined-Shape"></path>
            </g>
        </g>
    </g>
</svg>