<?xml version="1.0" encoding="UTF-8"?>
<svg width="24px" height="24px" viewBox="0 0 24 24" version="1.1" xmlns="http://www.w3.org/2000/svg" xmlns:xlink="http://www.w3.org/1999/xlink">
    <!-- Generator: Sketch 54.1 (76490) - https://sketchapp.com -->
    <title>basics/icon/common/move-up</title>
    <desc>Created with Sketch.</desc>
    <g id="basics/icon/common/move-up" stroke="none" stroke-width="1" fill="none" fill-rule="evenodd">
        <g id="@icon/common/move-up">
            <rect id="Rectangle" x="0" y="0" width="24" height="24"></rect>
            <g id="fill" transform="translate(2.000000, 2.000000)" fill="#333333" fill-rule="nonzero">
                <path d="M10.75,6.31066017 L10.75,16 L9.25,16 L9.25,6.31066017 L6.53033009,9.03033009 L5.46966991,7.96966991 L9.46966991,3.96966991 C9.76256313,3.6767767 10.2374369,3.6767767 10.5303301,3.96966991 L14.5303301,7.96966991 L13.4696699,9.03033009 L10.75,6.31066017 Z M10,18.5 C14.6944204,18.5 18.5,14.6944204 18.5,10 C18.5,5.30557963 14.6944204,1.5 10,1.5 C5.30557963,1.5 1.5,5.30557963 1.5,10 C1.5,14.6944204 5.30557963,18.5 10,18.5 Z M10,20 C4.4771525,20 0,15.5228475 0,10 C0,4.4771525 4.4771525,0 10,0 C15.5228475,0 20,4.4771525 20,10 C20,15.5228475 15.5228475,20 10,20 Z" id="Combined-Shape"></path>
            </g>
        </g>
    </g>
</svg>