<?xml version="1.0" encoding="UTF-8"?>
<svg width="24px" height="24px" viewBox="0 0 24 24" version="1.1" xmlns="http://www.w3.org/2000/svg" xmlns:xlink="http://www.w3.org/1999/xlink">
    <!-- Generator: Sketch 54.1 (76490) - https://sketchapp.com -->
    <title></title>
    <desc>Created with Sketch.</desc>
    <g id="basics/icon/common/notification" stroke="none" stroke-width="1" fill="none" fill-rule="evenodd">
        <g id="@icon/common/notification">
            <rect id="Rectangle" x="0" y="0" width="24" height="24"></rect>
            <g id="fill" transform="translate(3.000000, 1.500000)" fill="#333333" fill-rule="nonzero">
                <path d="M6.64597062,3.93089195 C6.36886906,3.52717986 6.2067,3.0383945 6.2067,2.5117 C6.2067,1.12470696 7.33126595,-0.0003 8.7177,-0.0003 C10.1049136,-0.0003 11.2297,1.12448644 11.2297,2.5117 C11.2297,3.03845221 11.0675152,3.52723543 10.7903566,3.93092875 C12.7709457,4.74635227 14.1652,6.69566007 14.1652,8.9709 L14.1652,12.3929 C14.1652,13.041461 14.3926893,13.6694219 14.8084855,14.1679052 L16.1238716,15.747169 C16.8505529,16.6173643 16.2316456,17.9409 15.0982,17.9409 L13.2920347,17.9409 C12.6122662,19.8312247 10.8033505,21.1543 8.7177,21.1543 C6.63224585,21.1543 4.82395439,19.8314012 4.14364804,17.9409 L2.3382,17.9409 C1.20418282,17.9409 0.584572389,16.6176932 1.31109382,15.74769 L2.62781019,14.1680304 C3.0428037,13.6695658 3.2702,13.0412935 3.2702,12.3929 L3.2702,8.9709 C3.2702,6.69571497 4.66500887,4.74631535 6.64597062,3.93089195 Z M4.6662,16.9882146 L4.6662,16.9882146 L4.6662,16.4409 L14.7495315,16.4409 L13.6562578,15.1283067 C13.0158677,14.3605662 12.6652,13.392584 12.6652,12.3929 L12.6652,8.9709 C12.6652,6.79024351 10.8981164,5.0229 8.7182,5.0229 C6.53804349,5.0229 4.7702,6.79048359 4.7702,8.9709 L4.7702,12.3929 C4.7702,13.3920296 4.41990167,14.3598674 3.78030618,15.12811 L2.68603724,16.4409 L4.6662,16.4409 L4.6662,16.9882146 Z M5.78773992,17.9409 C6.36777537,18.9702808 7.47145705,19.6543 8.7177,19.6543 C9.96420175,19.6543 11.0682771,18.9701048 11.6480661,17.9409 L5.78773992,17.9409 Z M9.7297,2.5117 C9.7297,1.95291356 9.27648644,1.4997 8.7177,1.4997 C8.15982476,1.4997 7.7067,1.95300245 7.7067,2.5117 C7.7067,3.07007528 8.15950229,3.5227 8.7177,3.5227 C9.27680892,3.5227 9.7297,3.07016399 9.7297,2.5117 Z" id="Combined-Shape"></path>
            </g>
        </g>
    </g>
</svg>