<?xml version="1.0" encoding="UTF-8"?>
<svg width="25px" height="24px" viewBox="0 0 25 24" version="1.1" xmlns="http://www.w3.org/2000/svg" xmlns:xlink="http://www.w3.org/1999/xlink">
    <!-- Generator: Sketch 54.1 (76490) - https://sketchapp.com -->
    <title></title>
    <desc>Created with Sketch.</desc>
    <g id="basics/icon/common/pin" stroke="none" stroke-width="1" fill="none" fill-rule="evenodd">
        <g id="@icon/common/pin">
            <rect id="Rectangle" x="1" y="0" width="24" height="24"></rect>
            <g id="fill" fill="#333333" fill-rule="nonzero">
                <path d="M11.0763694,14.25 L12.5235833,19.6829289 L13.9182077,14.25 L17.5971253,14.25 L16.4007825,13.1942375 C16.0243494,12.8620385 15.8087226,12.3841654 15.8087226,11.8821115 L15.8087226,3.75 L9.26522796,3.75 L9.26522796,11.8821115 C9.26522796,12.3841654 9.0496012,12.8620385 8.67316812,13.1942375 L7.47682532,14.25 L11.0763694,14.25 Z M6.81571042,15.75 C6.12535448,15.75 5.56571042,15.1903559 5.56571042,14.5 C5.56571042,14.1413901 5.71972953,13.8000522 5.9886103,13.5627672 L7.68064798,12.0695581 C7.73442414,12.0221011 7.76522796,11.9538335 7.76522796,11.8821115 L7.76522796,3.5 C7.76522796,2.80964406 8.32487202,2.25 9.01522796,2.25 L16.0587226,2.25 C16.7490786,2.25 17.3087226,2.80964406 17.3087226,3.5 L17.3087226,11.8821115 C17.3087226,11.9538335 17.3395265,12.0221011 17.3933026,12.0695581 L19.0853403,13.5627672 C19.6029597,14.0195619 19.6522678,14.8094807 19.195473,15.3271001 C18.958188,15.5959809 18.6168501,15.75 18.2582402,15.75 L15.0817923,15.75 L13.738805,20.98177 C13.5671568,21.6504465 12.8859391,22.0533675 12.2172626,21.8817193 C11.7795131,21.7693496 11.4365098,21.4294399 11.3201788,20.9927264 L9.92363065,15.75 L6.81571042,15.75 Z" id="Path" transform="translate(12.536983, 12.085637) rotate(-315.000000) translate(-12.536983, -12.085637) "></path>
            </g>
        </g>
    </g>
</svg>