<svg width="24" height="24" viewBox="0 0 24 24" fill="none" xmlns="http://www.w3.org/2000/svg"><path id="fill" d="M9.75 15C9.75 14.5858 10.0858 14.25 10.5 14.25H13.5C13.9142 14.25 14.25 14.5858 14.25 15C14.25 15.4142 13.9142 15.75 13.5 15.75H10.5C10.0858 15.75 9.75 15.4142 9.75 15Z" fill="#088736"/><path id="fill" d="M10.5 16.75C10.0858 16.75 9.75 17.0858 9.75 17.5C9.75 17.9142 10.0858 18.25 10.5 18.25H13.5C13.9142 18.25 14.25 17.9142 14.25 17.5C14.25 17.0858 13.9142 16.75 13.5 16.75H10.5Z" fill="#088736"/><path id="fill" fill-rule="evenodd" clip-rule="evenodd" d="M8 2.75C7.58579 2.75 7.25 3.08579 7.25 3.5V7.25H5C4.0335 7.25 3.25 8.0335 3.25 9V16C3.25 16.9665 4.0335 17.75 5 17.75H7.25V20.5C7.25 20.9142 7.58579 21.25 8 21.25H16C16.4142 21.25 16.75 20.9142 16.75 20.5V17.75H19C19.9665 17.75 20.75 16.9665 20.75 16V9C20.75 8.0335 19.9665 7.25 19 7.25H16.75V3.5C16.75 3.08579 16.4142 2.75 16 2.75H8ZM7.25 13.25V16.25H5C4.86193 16.25 4.75 16.1381 4.75 16V9C4.75 8.86193 4.86193 8.75 5 8.75H19C19.1381 8.75 19.25 8.86193 19.25 9V16C19.25 16.1381 19.1381 16.25 19 16.25H16.75V13.25H17.5C17.9142 13.25 18.25 12.9142 18.25 12.5C18.25 12.0858 17.9142 11.75 17.5 11.75H6.5C6.08579 11.75 5.75 12.0858 5.75 12.5C5.75 12.9142 6.08579 13.25 6.5 13.25H7.25ZM8.75 13.25V19.75H15.25V13.25H8.75ZM8.75 6.75V4.25H15.25V6.75H8.75Z" fill="#088736"/></svg>
