<?xml version="1.0" encoding="UTF-8"?>
<svg width="24px" height="24px" viewBox="0 0 24 24" version="1.1" xmlns="http://www.w3.org/2000/svg" xmlns:xlink="http://www.w3.org/1999/xlink">
    <!-- Generator: Sketch 54.1 (76490) - https://sketchapp.com -->
    <title>basics/icon/common/radio-off</title>
    <desc>Created with Sketch.</desc>
    <g id="basics/icon/common/radio-off" stroke="none" stroke-width="1" fill="none" fill-rule="evenodd">
        <g id="@icon/common/radio-off">
            <rect id="Rectangle" x="0" y="0" width="24" height="24"></rect>
            <g id="fill" transform="translate(2.000000, 2.000000)" fill="#333333" fill-rule="nonzero">
                <path d="M10,0 C4.5,0 0,4.5 0,10 C0,15.5 4.5,20 10,20 C15.5,20 20,15.5 20,10 C20,4.5 15.5,0 10,0 M10,1.875 C14.48,1.875 18.125,5.52 18.125,10 C18.125,14.48 14.48,18.125 10,18.125 C5.52,18.125 1.875,14.48 1.875,10 C1.875,5.52 5.52,1.875 10,1.875" id="Fill-1"></path>
            </g>
        </g>
    </g>
</svg>