<svg width="24" height="24" viewBox="0 0 24 24" fill="none" xmlns="http://www.w3.org/2000/svg">
<rect id="fill" x="4" y="4" width="16" height="16" rx="8" fill="#088736" stroke="#088736" stroke-width="1.5" stroke-linecap="round" stroke-linejoin="round"/>
<path fill-rule="evenodd" clip-rule="evenodd" d="M10.0303 6.96967C10.3232 7.26256 10.3232 7.73744 10.0303 8.03033L9.31066 8.75L16.5 8.75C16.9142 8.75 17.25 9.08579 17.25 9.5C17.25 9.91421 16.9142 10.25 16.5 10.25L9.31066 10.25L10.0303 10.9697C10.3232 11.2626 10.3232 11.7374 10.0303 12.0303C9.73744 12.3232 9.26256 12.3232 8.96967 12.0303L6.96967 10.0303C6.67678 9.73744 6.67678 9.26256 6.96967 8.96967L8.96967 6.96967C9.26256 6.67678 9.73744 6.67678 10.0303 6.96967ZM13.9697 11.9697C14.2626 11.6768 14.7374 11.6768 15.0303 11.9697L17.0303 13.9697C17.3232 14.2626 17.3232 14.7374 17.0303 15.0303L15.0303 17.0303C14.7374 17.3232 14.2626 17.3232 13.9697 17.0303C13.6768 16.7374 13.6768 16.2626 13.9697 15.9697L14.6893 15.25L7.5 15.25C7.08579 15.25 6.75 14.9142 6.75 14.5C6.75 14.0858 7.08579 13.75 7.5 13.75L14.6893 13.75L13.9697 13.0303C13.6768 12.7374 13.6768 12.2626 13.9697 11.9697Z" fill="white"/>
</svg>
