<svg width="24" height="24" viewBox="0 0 24 24" fill="none" xmlns="http://www.w3.org/2000/svg">
<rect x="4" y="4" width="16" height="16" rx="8" fill="white" stroke="white" stroke-width="1.5" stroke-linecap="round" stroke-linejoin="round"/>
<path fill-rule="evenodd" clip-rule="evenodd" d="M14.2169 15.2776C14.5098 15.5705 14.9847 15.5705 15.2776 15.2776C15.5705 14.9847 15.5705 14.5098 15.2776 14.2169L13.0597 11.9991L13.0795 11.9792L15.2784 9.78034C15.5713 9.48744 15.5713 9.01257 15.2784 8.71968C14.9856 8.42678 14.5107 8.42678 14.2178 8.71968L12.0189 10.9186L11.9991 10.9384L11.9792 10.9186L9.78033 8.71968C9.48744 8.42678 9.01256 8.42678 8.71967 8.71968C8.42678 9.01257 8.42678 9.48744 8.71967 9.78034L10.9186 11.9792L10.9384 11.9991L8.72054 14.2169C8.42765 14.5098 8.42765 14.9847 8.72054 15.2776C9.01343 15.5705 9.48831 15.5705 9.7812 15.2776L11.9991 13.0597L14.2169 15.2776Z" fill="#E05548"/>
</svg>
