<svg width="24" height="24" viewBox="0 0 24 24" fill="none" xmlns="http://www.w3.org/2000/svg">
<path d="M7.00024 10.25C6.58603 10.25 6.25024 10.5858 6.25024 11C6.25024 11.4142 6.58603 11.75 7.00024 11.75H16.7502C17.1645 11.75 17.5002 11.4142 17.5002 11C17.5002 10.5858 17.1645 10.25 16.7502 10.25H7.00024Z" fill="#088736"/>
<path d="M6.25024 15C6.25024 14.5858 6.58603 14.25 7.00024 14.25H16.7502C17.1645 14.25 17.5002 14.5858 17.5002 15C17.5002 15.4142 17.1645 15.75 16.7502 15.75H7.00024C6.58603 15.75 6.25024 15.4142 6.25024 15Z" fill="#088736"/>
<path fill-rule="evenodd" clip-rule="evenodd" d="M5.00024 4.25C4.03375 4.25 3.25024 5.0335 3.25024 6V18C3.25024 18.9665 4.03375 19.75 5.00024 19.75H19.0002C19.9667 19.75 20.7502 18.9665 20.7502 18V6C20.7502 5.0335 19.9667 4.25 19.0002 4.25H5.00024ZM4.75024 8V18C4.75024 18.1381 4.86217 18.25 5.00024 18.25H19.0002C19.1383 18.25 19.2502 18.1381 19.2502 18V8H4.75024Z" fill="#088736"/>
</svg>
