<svg width="24" height="24" viewBox="0 0 24 24" fill="none" xmlns="http://www.w3.org/2000/svg">
    <path id="fill" fill-rule="evenodd" clip-rule="evenodd" d="M14.25 6C14.25 4.20507 15.7051 2.75 17.5 2.75C19.2949 2.75 20.75 4.20507 20.75 6C20.75 7.79493 19.2949 9.25 17.5 9.25C16.5404 9.25 15.6779 8.83412 15.083 8.17275L9.63604 11.1438C9.71034 11.4166 9.75 11.7037 9.75 12C9.75 12.2963 9.71035 12.5834 9.63606 12.8561L15.0831 15.8272C15.678 15.1659 16.5404 14.75 17.5 14.75C19.2949 14.75 20.75 16.2051 20.75 18C20.75 19.7949 19.2949 21.25 17.5 21.25C15.7051 21.25 14.25 19.7949 14.25 18C14.25 17.7036 14.2897 17.4165 14.364 17.1436L8.91712 14.1726C8.3222 14.8341 7.45967 15.25 6.5 15.25C4.70507 15.25 3.25 13.7949 3.25 12C3.25 10.2051 4.70507 8.75 6.5 8.75C7.45965 8.75 8.32216 9.16593 8.91709 9.82736L14.364 6.85631C14.2897 6.58349 14.25 6.29638 14.25 6ZM17.5 4.25C16.5335 4.25 15.75 5.0335 15.75 6C15.75 6.9665 16.5335 7.75 17.5 7.75C18.4665 7.75 19.25 6.9665 19.25 6C19.25 5.0335 18.4665 4.25 17.5 4.25ZM4.75 12C4.75 11.0335 5.5335 10.25 6.5 10.25C7.4665 10.25 8.25 11.0335 8.25 12C8.25 12.9665 7.4665 13.75 6.5 13.75C5.5335 13.75 4.75 12.9665 4.75 12ZM17.5 16.25C16.5335 16.25 15.75 17.0335 15.75 18C15.75 18.9665 16.5335 19.75 17.5 19.75C18.4665 19.75 19.25 18.9665 19.25 18C19.25 17.0335 18.4665 16.25 17.5 16.25Z" fill="#D6D6D6"/>
</svg>
