<svg width="24" height="24" viewBox="0 0 24 24" fill="none" xmlns="http://www.w3.org/2000/svg">
<path id="fill" d="M9 8.25C8.58579 8.25 8.25 8.58579 8.25 9C8.25 9.41421 8.58579 9.75 9 9.75H13C13.4142 9.75 13.75 9.41421 13.75 9C13.75 8.58579 13.4142 8.25 13 8.25H9Z" fill="#088736"/>
<path id="fill" d="M8.25 12C8.25 11.5858 8.58579 11.25 9 11.25H15C15.4142 11.25 15.75 11.5858 15.75 12C15.75 12.4142 15.4142 12.75 15 12.75H9C8.58579 12.75 8.25 12.4142 8.25 12Z" fill="#088736"/>
<path id="fill" d="M9 14.25C8.58579 14.25 8.25 14.5858 8.25 15C8.25 15.4142 8.58579 15.75 9 15.75H15C15.4142 15.75 15.75 15.4142 15.75 15C15.75 14.5858 15.4142 14.25 15 14.25H9Z" fill="#088736"/>
<path id="fill" fill-rule="evenodd" clip-rule="evenodd" d="M5.5 3.25C5.08579 3.25 4.75 3.58579 4.75 4V20C4.75 20.4142 5.08579 20.75 5.5 20.75H18.5C18.9142 20.75 19.25 20.4142 19.25 20V8C19.25 7.81833 19.1841 7.64284 19.0644 7.50612L15.5644 3.50612C15.422 3.34336 15.2163 3.25 15 3.25H5.5ZM6.25 19.25V4.75H14.6597L17.75 8.2818V19.25H6.25Z" fill="#088736"/>
</svg>
