<?xml version="1.0" encoding="UTF-8"?>
<svg width="24px" height="24px" viewBox="0 0 24 24" version="1.1" xmlns="http://www.w3.org/2000/svg" xmlns:xlink="http://www.w3.org/1999/xlink">
    <!-- Generator: Sketch 54.1 (76490) - https://sketchapp.com -->
    <title></title>
    <desc>Created with Sketch.</desc>
    <g id="basics/icon/common/sort-list" stroke="none" stroke-width="1" fill="none" fill-rule="evenodd">
        <g id="@icon/common/sortSelect">
            <rect id="Rectangle" x="0" y="0" width="24" height="24"></rect>
            <g id="fill" transform="translate(2.000000, 2.500000)" fill="#333333" fill-rule="nonzero">
                <path d="M7.375,4.502 L7.375,2.498 L18.375,2.498 L18.375,4.502 L7.375,4.502 Z M7.375,10.502 L7.375,8.498 L18.375,8.498 L18.375,10.502 L7.375,10.502 Z M7.375,16.502 L7.375,14.498 L18.375,14.498 L18.375,16.502 L7.375,16.502 Z M3.08263867,3.3969785 L5.55555755,0.51190647 L6.69444245,1.48809353 L3.16736133,5.6030215 L0.594669914,3.03033009 L1.65533009,1.96966991 L3.08263867,3.3969785 Z M1.65533009,8.21966991 L3.08263867,9.6469785 L5.55555755,6.76190647 L6.69444245,7.73809353 L3.16736133,11.8530215 L0.594669914,9.28033009 L1.65533009,8.21966991 Z M3.375,13.25 C4.75571187,13.25 5.875,14.3692881 5.875,15.75 C5.875,17.1307119 4.75571187,18.25 3.375,18.25 C1.99428813,18.25 0.875,17.1307119 0.875,15.75 C0.875,14.3692881 1.99428813,13.25 3.375,13.25 Z M3.375,14.75 C2.82271525,14.75 2.375,15.1977153 2.375,15.75 C2.375,16.3022847 2.82271525,16.75 3.375,16.75 C3.92728475,16.75 4.375,16.3022847 4.375,15.75 C4.375,15.1977153 3.92728475,14.75 3.375,14.75 Z" id="Combined-Shape"></path>
            </g>
        </g>
    </g>
</svg>