<?xml version="1.0" encoding="UTF-8"?>
<svg width="24px" height="24px" viewBox="0 0 24 24" version="1.1" xmlns="http://www.w3.org/2000/svg" xmlns:xlink="http://www.w3.org/1999/xlink">
    <!-- Generator: Sketch 54.1 (76490) - https://sketchapp.com -->
    <title>basics/icon/common/sort-updown</title>
    <desc>Created with Sketch.</desc>
    <g id="basics/icon/common/sort-updown" stroke="none" stroke-width="1" fill="none" fill-rule="evenodd">
        <g id="@icon/common/sort">
            <rect id="Rectangle" x="0" y="0" width="24" height="24"></rect>
            <g id="fill" transform="translate(12.000000, 12.000000) rotate(-90.000000) translate(-12.000000, -12.000000) translate(2.500000, 2.000000)" fill="#333333" fill-rule="nonzero">
                <path d="M3.17446017,14.9367 L6.13033009,17.8925699 C6.4232233,18.1854631 6.4232233,18.6603369 6.13033009,18.9532301 C5.83743687,19.2461233 5.36256313,19.2461233 5.06966991,18.9532301 L0.833669914,14.7172301 C0.540801138,14.4243613 0.540773118,13.9495358 0.833607327,13.6566325 L5.06960733,9.41963251 C5.36246598,9.12670472 5.83733971,9.12664868 6.13026749,9.41950733 C6.42319528,9.71236598 6.42325132,10.1872397 6.13039267,10.4801675 L3.17455795,13.4367 L17.75,13.4367 C18.1642136,13.4367 18.5,13.7724864 18.5,14.1867 C18.5,14.6009136 18.1642136,14.9367 17.75,14.9367 L3.17446017,14.9367 Z M15.9396398,5.0363 L12.9836699,2.08033009 C12.6907767,1.78743687 12.6907767,1.31256313 12.9836699,1.01966991 C13.2765631,0.726776695 13.7514369,0.726776695 14.0443301,1.01966991 L18.2803301,5.25566991 C18.5731989,5.54853869 18.5732269,6.02336415 18.2803927,6.31626749 L14.0443927,10.5532675 C13.751534,10.8461953 13.2766603,10.8462513 12.9837325,10.5533927 C12.6908047,10.260534 12.6907487,9.78566029 12.9836073,9.49273251 L15.9393421,6.5363 L1.45,6.5363 C1.03578644,6.5363 0.7,6.20051356 0.7,5.7863 C0.7,5.37208644 1.03578644,5.0363 1.45,5.0363 L15.9396398,5.0363 Z" id="Combined-Shape"></path>
            </g>
        </g>
    </g>
</svg>