<svg width="24" height="24" viewBox="0 0 24 24" fill="none" xmlns="http://www.w3.org/2000/svg">
<path id="fill" fill-rule="evenodd" clip-rule="evenodd" d="M3.25009 12C3.25009 7.16751 7.1676 3.25 12.0001 3.25C16.8326 3.25 20.7501 7.16751 20.7501 12C20.7501 16.8325 16.8326 20.75 12.0001 20.75C7.1676 20.75 3.25009 16.8325 3.25009 12ZM12.0001 4.75C7.99603 4.75 4.75009 7.99594 4.75009 12C4.75009 13.8852 5.46964 15.6024 6.64909 16.8918C7.18268 15.5386 8.21439 14.4364 9.51854 13.8115C8.74065 13.1244 8.25009 12.1195 8.25009 11C8.25009 8.92893 9.92902 7.25 12.0001 7.25C14.0712 7.25 15.7501 8.92893 15.7501 11C15.7501 12.1195 15.2595 13.1244 14.4816 13.8115C15.7858 14.4364 16.8175 15.5386 17.3511 16.8918C18.5305 15.6024 19.2501 13.8852 19.2501 12C19.2501 7.99594 16.0042 4.75 12.0001 4.75ZM16.1232 17.9642C15.661 16.1176 13.9895 14.75 12.0001 14.75C10.0107 14.75 8.33917 16.1176 7.87702 17.9643C9.04759 18.775 10.4684 19.25 12.0001 19.25C13.5318 19.25 14.9526 18.775 16.1232 17.9642ZM12.0001 8.75C10.7575 8.75 9.75009 9.75736 9.75009 11C9.75009 12.2426 10.7575 13.25 12.0001 13.25C13.2427 13.25 14.2501 12.2426 14.2501 11C14.2501 9.75736 13.2427 8.75 12.0001 8.75Z" fill="#088736"/>
</svg>
