<?xml version="1.0" encoding="UTF-8"?>
<svg width="24px" height="24px" viewBox="0 0 24 24" version="1.1" xmlns="http://www.w3.org/2000/svg" xmlns:xlink="http://www.w3.org/1999/xlink">
    <!-- Generator: Sketch 54.1 (76490) - https://sketchapp.com -->
    <title>basics/icon/common/staff</title>
    <desc>Created with Sketch.</desc>
    <g id="basics/icon/common/staff" stroke="none" stroke-width="1" fill="none" fill-rule="evenodd">
        <g id="@icon/common/staff">
            <rect id="Rectangle" x="0" y="0" width="24" height="24"></rect>
            <g id="fill" transform="translate(3.000000, 2.000000)" fill="#333333" fill-rule="nonzero">
                <path d="M11.660817,10.4393167 C14.7282873,11.4848611 16.9962349,14.2885196 17.2309272,17.6759359 C17.2792153,18.3977167 16.6911219,19 15.9766,19 L2.0236,19 C1.30849744,19 0.718517647,18.3965936 0.769393651,17.6741612 C1.00398767,14.2881876 3.27192141,11.4846985 6.3390561,10.4392405 C4.83290379,9.53439905 3.825,7.88476712 3.825,6 C3.825,3.14220779 6.14220779,0.825 9,0.825 C11.8577922,0.825 14.175,3.14220779 14.175,6 C14.175,7.88482003 13.1670396,9.53449168 11.660817,10.4393167 Z M12.825,6 C12.825,3.88779221 11.1122078,2.175 9,2.175 C6.88779221,2.175 5.175,3.88779221 5.175,6 C5.175,8.11220779 6.88779221,9.825 9,9.825 C11.1122078,9.825 12.825,8.11220779 12.825,6 Z M8.9996,11.5 C5.54275082,11.5 2.66620567,14.109945 2.29081424,17.5 L15.7094178,17.5 C15.3344258,14.1102224 12.4575579,11.5 8.9996,11.5 Z" id="Combined-Shape"></path>
            </g>
        </g>
    </g>
</svg>