<svg width="24" height="24" viewBox="0 0 24 24" fill="none" xmlns="http://www.w3.org/2000/svg">
<path id="fill" d="M7.00024 7.75C6.58603 7.75 6.25024 8.08579 6.25024 8.5C6.25024 8.91421 6.58603 9.25 7.00024 9.25H16.7502C17.1645 9.25 17.5002 8.91421 17.5002 8.5C17.5002 8.08579 17.1645 7.75 16.7502 7.75H7.00024Z" fill="#088736"/>
<path id="fill" d="M6.50024 12C6.50024 11.5858 6.83603 11.25 7.25024 11.25H16.7502C17.1645 11.25 17.5002 11.5858 17.5002 12C17.5002 12.4142 17.1645 12.75 16.7502 12.75H7.25024C6.83603 12.75 6.50024 12.4142 6.50024 12Z" fill="#088736"/>
<path id="fill" d="M7.25024 14.75C6.83603 14.75 6.50024 15.0858 6.50024 15.5C6.50024 15.9142 6.83603 16.25 7.25024 16.25H12.7502C13.1645 16.25 13.5002 15.9142 13.5002 15.5C13.5002 15.0858 13.1645 14.75 12.7502 14.75H7.25024Z" fill="#088736"/>
<path id="fill" fill-rule="evenodd" clip-rule="evenodd" d="M5.00024 4.25C4.03375 4.25 3.25024 5.0335 3.25024 6V18C3.25024 18.9665 4.03375 19.75 5.00024 19.75H19.0002C19.9667 19.75 20.7502 18.9665 20.7502 18V6C20.7502 5.0335 19.9667 4.25 19.0002 4.25H5.00024ZM4.75024 6C4.75024 5.86193 4.86217 5.75 5.00024 5.75H19.0002C19.1383 5.75 19.2502 5.86193 19.2502 6V18C19.2502 18.1381 19.1383 18.25 19.0002 18.25H5.00024C4.86217 18.25 4.75024 18.1381 4.75024 18V6Z" fill="#088736"/>
</svg>
