<svg width="24" height="24" viewBox="0 0 24 24" fill="none" xmlns="http://www.w3.org/2000/svg">
<path id="fill" fill-rule="evenodd" clip-rule="evenodd" d="M12.2871 3.30691C12.1987 3.27024 12.1017 3.25 12 3.25C11.8983 3.25 11.8013 3.27024 11.7129 3.30691C11.6245 3.34351 11.5416 3.39776 11.4697 3.46967L7.46967 7.46967C7.17678 7.76256 7.17678 8.23744 7.46967 8.53033C7.76256 8.82322 8.23744 8.82322 8.53033 8.53033L11.25 5.81066V15C11.25 15.4142 11.5858 15.75 12 15.75C12.4142 15.75 12.75 15.4142 12.75 15V5.81066L15.4697 8.53033C15.7626 8.82322 16.2374 8.82322 16.5303 8.53033C16.8232 8.23744 16.8232 7.76256 16.5303 7.46967L12.5303 3.46967C12.4584 3.39776 12.3755 3.34351 12.2871 3.30691ZM4.5 15C4.91421 15 5.25 15.3358 5.25 15.75V18H18.75V15.75C18.75 15.3358 19.0858 15 19.5 15C19.9142 15 20.25 15.3358 20.25 15.75V18.75C20.25 19.1642 19.9142 19.5 19.5 19.5H4.5C4.08579 19.5 3.75 19.1642 3.75 18.75V15.75C3.75 15.3358 4.08579 15 4.5 15Z" fill="#333333"/>
</svg>
