<?xml version="1.0" encoding="UTF-8"?>
<svg width="24px" height="24px" viewBox="0 0 24 24" version="1.1" xmlns="http://www.w3.org/2000/svg" xmlns:xlink="http://www.w3.org/1999/xlink">
    <!-- Generator: Sketch 54.1 (76490) - https://sketchapp.com -->
    <title>basics/icon/common/url</title>
    <desc>Created with Sketch.</desc>
    <g id="basics/icon/common/url" stroke="none" stroke-width="1" fill="none" fill-rule="evenodd">
        <g id="@icon/common/url">
            <rect id="Rectangle" x="0" y="0" width="24" height="24"></rect>
            <g id="fill" transform="translate(2.000000, 2.000000)" fill="#333333" fill-rule="nonzero">
                <path d="M6.75,8 C6.75,8.41421356 6.41421356,8.75 6,8.75 C5.58578644,8.75 5.25,8.41421356 5.25,8 L5.25,6 C5.25,3.37664744 7.37664744,1.25 10,1.25 C12.6233526,1.25 14.75,3.37664744 14.75,6 L14.75,8 C14.75,8.41421356 14.4142136,8.75 14,8.75 C13.5857864,8.75 13.25,8.41421356 13.25,8 L13.25,6 C13.25,4.20507456 11.7949254,2.75 10,2.75 C8.20507456,2.75 6.75,4.20507456 6.75,6 L6.75,8 Z M13.25,12 C13.25,11.5857864 13.5857864,11.25 14,11.25 C14.4142136,11.25 14.75,11.5857864 14.75,12 L14.75,14 C14.75,16.6233526 12.6233526,18.75 10,18.75 C7.37664744,18.75 5.25,16.6233526 5.25,14 L5.25,12 C5.25,11.5857864 5.58578644,11.25 6,11.25 C6.41421356,11.25 6.75,11.5857864 6.75,12 L6.75,14 C6.75,15.7949254 8.20507456,17.25 10,17.25 C11.7949254,17.25 13.25,15.7949254 13.25,14 L13.25,12 Z M9.25,8 C9.25,7.58578644 9.58578644,7.25 10,7.25 C10.4142136,7.25 10.75,7.58578644 10.75,8 L10.75,12 C10.75,12.4142136 10.4142136,12.75 10,12.75 C9.58578644,12.75 9.25,12.4142136 9.25,12 L9.25,8 Z" id="Combined-Shape" transform="translate(10.000000, 10.000000) rotate(-315.000000) translate(-10.000000, -10.000000) "></path>
            </g>
        </g>
    </g>
</svg>