<?xml version="1.0" encoding="UTF-8"?>
<svg width="24px" height="24px" viewBox="0 0 24 24" version="1.1" xmlns="http://www.w3.org/2000/svg" xmlns:xlink="http://www.w3.org/1999/xlink">
    <!-- Generator: Sketch 54.1 (76490) - https://sketchapp.com -->
    <title>basics/icon/common/warning</title>
    <desc>Created with Sketch.</desc>
    <g id="basics/icon/common/warning" stroke="none" stroke-width="1" fill="none" fill-rule="evenodd">
        <g id="@icon/common/warning">
            <rect id="Rectangle" x="0" y="0" width="24" height="24"></rect>
            <g id="fill" transform="translate(2.000000, 3.000000)" fill="#333333" fill-rule="nonzero">
                <path d="M9.99403963,15.1923948 C9.36723219,15.1923948 8.89712661,14.6755821 8.89712661,14.0121342 C8.89712661,13.3476608 9.36723219,12.8308481 9.99403963,12.8308481 C10.6208471,12.8308481 11.1030066,13.3476608 11.1030066,14.0121342 C11.1030066,14.6755821 10.6208471,15.1923948 9.99403963,15.1923948 L9.99403963,15.1923948 Z M10.8860348,5.67340312 L10.8247604,7.38278146 L10.5726311,11.9212989 L9.41645264,11.9212989 L9.16331887,7.38278146 L9.10204443,5.67340312 L10.8860348,5.67340312 Z M19.8411443,16.1973083 L11.0196332,0.600640889 C10.5655996,-0.20021363 9.43352913,-0.20021363 8.98050004,0.600640889 L0.158988957,16.1973083 C-0.293035637,16.9991882 0.272497355,18 1.17855554,18 L18.8215777,18 C19.7266314,18 20.2931689,16.9991882 19.8411443,16.1973083 L19.8411443,16.1973083 Z" id="Fill-1"></path>
            </g>
        </g>
    </g>
</svg>