<svg width="401" height="276" viewBox="0 0 401 276" fill="none" xmlns="http://www.w3.org/2000/svg">
<g clip-path="url(#clip0)">
<path opacity="0.12" d="M357.472 55.8795C361.294 77.6246 339.447 99.0689 346.197 120.072C350.081 132.203 361.735 139.769 371.782 147.572C387.748 159.947 402.481 177.926 400.277 197.997C397.892 219.645 377.265 234.951 356.763 242.332C279.86 269.992 16.5196 318.583 0.912761 195.93C-2.05905 172.486 11.4161 149.256 26.5374 131.087C38.5654 116.641 105.562 51.711 130.051 39.5888C239.134 -14.427 346.235 -8.12818 357.472 55.8795Z" fill="#8CC456"/>
<path d="M245.689 244.04H124.287V250.955H245.689V244.04Z" fill="#00A85F"/>
<path d="M227.144 188.699H144.944V244.04H227.144V188.699Z" fill="#68E1FD"/>
<path d="M227.144 188.699H144.944V244.04H227.144V188.699Z" fill="#00A85F"/>
<path d="M227.144 188.699H144.944V244.04H227.144V188.699Z" fill="url(#paint0_linear)"/>
<path d="M336.038 32.1302V177.062C336.038 181.216 335.219 185.33 333.628 189.167C332.036 193.005 329.704 196.492 326.764 199.428C323.823 202.365 320.333 204.693 316.492 206.281C312.651 207.869 308.534 208.685 304.377 208.683H63.4956C55.1039 208.683 47.0558 205.351 41.122 199.421C35.1882 193.491 31.8546 185.448 31.8546 177.062V32.1302C31.8539 27.9771 32.6718 23.8645 34.2616 20.0273C35.8514 16.1901 38.1818 12.7034 41.12 9.76627C44.0581 6.82913 47.5464 4.49909 51.3856 2.90918C55.2248 1.31927 59.3398 0.500631 63.4956 0.499993H304.348C308.506 0.494892 312.625 1.30862 316.468 2.89469C320.311 4.48076 323.804 6.80808 326.747 9.74366C329.69 12.6792 332.025 16.1656 333.619 20.0034C335.213 23.8412 336.035 27.9554 336.038 32.1107V32.1302Z" fill="#00A85F"/>
<path d="M332.842 32.1302V166.463H34.6927V32.1302L34.6927 32.1297C34.6921 28.3708 35.4324 24.6486 36.8713 21.1756C38.3102 17.7025 40.4195 14.5466 43.0791 11.888C45.7386 9.22934 48.8962 7.12016 52.3716 5.68091C55.8468 4.24172 59.5718 3.50063 63.3337 3.49999C63.3339 3.49999 63.334 3.49999 63.3342 3.49999L304.152 3.5L304.156 3.49999C307.92 3.49537 311.648 4.23203 315.128 5.66782C318.607 7.10361 321.769 9.21038 324.432 11.8676C327.096 14.5249 329.21 17.6805 330.653 21.1542C332.096 24.6279 332.84 28.3516 332.842 32.1126V32.1302Z" fill="white" stroke="#333333" stroke-width="6"/>
<path d="M285.54 28.9167H82.6468C79.3331 28.9167 76.6468 31.603 76.6468 34.9167V65.2665C76.6468 68.5802 79.3331 71.2665 82.6468 71.2665H285.54C288.854 71.2665 291.54 68.5802 291.54 65.2665V34.9167C291.54 31.6029 288.854 28.9167 285.54 28.9167Z" fill="white"/>
<rect opacity="0.2" x="85.8211" y="38.0833" width="77.0642" height="3.66666" rx="1.83333" fill="#00A85F"/>
<rect opacity="0.2" x="85.8211" y="49.0833" width="40.367" height="3.66667" rx="1.83333" fill="#00A85F"/>
<rect opacity="0.2" x="129.858" y="49.0833" width="152.294" height="3.66667" rx="1.83333" fill="#00A85F"/>
<rect opacity="0.2" x="85.8211" y="60.0833" width="40.367" height="3.66667" rx="1.83333" fill="#00A85F"/>
<rect opacity="0.2" x="129.858" y="60.0833" width="40.367" height="3.66667" rx="1.83333" fill="#00A85F"/>
<rect opacity="0.2" x="173.895" y="60.0833" width="108.257" height="3.66667" rx="1.83333" fill="#00A85F"/>
<rect opacity="0.2" x="166.555" y="38.0833" width="77.0642" height="3.66666" rx="1.83333" fill="#00A85F"/>
<rect opacity="0.2" x="247.289" y="38.0833" width="34.8624" height="3.66666" rx="1.83333" fill="#00A85F"/>
<path d="M285.326 68.5H200.078C196.764 68.5 194.078 71.1863 194.078 74.5V95.5C194.078 98.8137 196.764 101.5 200.078 101.5H285.326C288.639 101.5 291.326 98.8137 291.326 95.5V74.5C291.326 71.1863 288.639 68.5 285.326 68.5Z" fill="white"/>
<rect opacity="0.2" x="203.252" y="77.6667" width="78.8991" height="3.66667" rx="1.83334" fill="#00A85F"/>
<rect opacity="0.2" x="203.252" y="88.6667" width="23.8532" height="3.66667" rx="1.83334" fill="#00A85F"/>
<rect opacity="0.2" x="230.775" y="88.6667" width="51.3761" height="3.66667" rx="1.83334" fill="#00A85F"/>
<path d="M167.895 68.5H82.6468C79.3331 68.5 76.6468 71.1863 76.6468 74.5V141.333C76.6468 144.647 79.3331 147.333 82.6468 147.333H167.895C171.208 147.333 173.895 144.647 173.895 141.333V74.5C173.895 71.1863 171.208 68.5 167.895 68.5Z" fill="white"/>
<rect x="85.5" y="122.5" width="197" height="14" rx="3" fill="#00A85F"/>
<path d="M179.151 129L182.362 132.208L187.867 126.708" stroke="white" stroke-width="1.5" stroke-linecap="round" stroke-linejoin="round"/>
<rect opacity="0.2" x="85.8211" y="96" width="78.8991" height="3.66667" rx="1.83334" fill="#00A85F"/>
<rect opacity="0.2" x="85.8211" y="107" width="78.8991" height="3.66666" rx="1.83333" fill="#00A85F"/>
<ellipse opacity="0.1" cx="91.3257" cy="83.1667" rx="5.50459" ry="5.5" fill="#333333"/>
<rect opacity="0.1" x="100.5" y="81.3333" width="64.2202" height="3.66666" rx="1.83333" fill="#333333"/>
<path d="M257.512 264.183H262.15L247.859 84.5204L243.94 85.5734L244.829 97.3122L230.746 98.2003L229.664 84.5204L225.745 85.5734L239.303 264.183H243.94L242.323 243.802L255.919 242.967L255.715 239.74L242.066 240.58L240.905 226.021L254.861 225.138L254.662 221.921L240.652 222.785L239.497 208.197L253.181 207.329L257.512 264.183ZM231.004 101.403L245.086 100.505L246.193 115.093L232.174 115.995L231.004 101.403ZM232.417 119.193L246.426 118.295L247.533 132.946L233.592 133.819L232.417 119.193ZM233.84 137.017L247.776 136.124L248.961 151.697L235.049 152.541L233.84 137.017ZM235.326 155.749L249.204 154.919L250.233 168.507L236.408 169.375L235.326 155.749ZM236.661 172.598L250.476 171.719L251.583 186.326L237.822 187.195L236.661 172.598ZM239.239 204.999L238.074 190.393L251.831 189.514L252.938 204.131L239.239 204.999Z" fill="#00A85F"/>
<g opacity="0.61">
<path opacity="0.61" d="M257.512 264.183H262.15L247.859 84.5204L243.94 85.5734L244.829 97.3122L230.746 98.2003L229.664 84.5204L225.745 85.5734L239.303 264.183H243.94L242.323 243.802L255.919 242.967L255.715 239.74L242.066 240.58L240.905 226.021L254.861 225.138L254.662 221.921L240.652 222.785L239.497 208.197L253.181 207.329L257.512 264.183ZM231.004 101.403L245.086 100.505L246.193 115.093L232.174 115.995L231.004 101.403ZM232.417 119.193L246.426 118.295L247.533 132.946L233.592 133.819L232.417 119.193ZM233.84 137.017L247.776 136.124L248.961 151.697L235.049 152.541L233.84 137.017ZM235.326 155.749L249.204 154.919L250.233 168.507L236.408 169.375L235.326 155.749ZM236.661 172.598L250.476 171.719L251.583 186.326L237.822 187.195L236.661 172.598ZM239.239 204.999L238.074 190.393L251.831 189.514L252.938 204.131L239.239 204.999Z" fill="url(#paint1_linear)"/>
</g>
<path d="M250.782 132.286L250.452 135.246H243.61C243.61 135.246 243.051 133.538 244.299 133.111C244.984 132.869 245.689 132.692 246.407 132.582L250.782 132.286Z" fill="#FF8C00"/>
<path d="M241.24 70.9764C240.925 73.6256 241.089 76.3099 241.726 78.9009C242.107 79.3923 242.613 79.7733 243.191 80.0044C243.769 80.2356 244.398 80.3086 245.013 80.216V82.1862H248.286L249.685 72.3206C249.685 72.3206 244.532 65.75 241.24 70.9764Z" fill="#F0DECD"/>
<path d="M243.547 71.9615C244.062 72.9922 244.391 74.1062 244.518 75.2516C244.518 75.2516 245.173 73.9365 245.489 74.5917C245.805 75.2468 244.833 76.5667 244.833 76.5667L245.805 78.207H249.131C249.131 78.207 250.777 71.0103 249.854 70.0204C248.932 69.0304 248.31 69.0498 248.31 69.0498C248.31 69.0498 248.31 68.0793 246.334 68.0793C244.358 68.0793 241.731 68.0793 240.745 69.7244C239.759 71.3694 239.429 70.6949 239.429 70.6949C239.429 70.6949 239.987 71.913 240.842 71.6169C241.046 71.5684 243.216 70.9764 243.547 71.9615Z" fill="#333333"/>
<path d="M245.023 82.1862H250.554C250.554 82.1862 252.889 82.6715 253.215 88.2667C253.414 92.0897 253.414 95.9204 253.215 99.7434V108.915L250.554 108.027L240.682 110.23L239.71 96.7833C238.686 96.6582 237.702 96.3123 236.825 95.7693C235.948 95.2263 235.199 94.4993 234.631 93.6387C233.913 92.5618 233.46 91.3297 233.312 90.0439C233.163 88.758 233.322 87.4553 233.777 86.2431L240.648 89.8584L241.012 87.9173C241.388 85.8139 242.567 83.9385 244.299 82.6861L245.023 82.1862Z" fill="#D6D6D6"/>
<path d="M234.694 84.4233L233.053 79.1629L239.599 78.173L241.803 85.3405L240.648 89.8584L236.724 87.8154L234.694 84.4233Z" fill="#FCFDFF"/>
<path d="M233.378 87.3641C233.49 86.2638 233.951 85.2281 234.694 84.4088L235.025 84.7339H237.117L237.448 86.0199L236.69 87.102C236.234 87.4855 235.67 87.7169 235.076 87.7639C234.482 87.8109 233.889 87.6711 233.378 87.3641Z" fill="#F0DECD"/>
<path d="M236.724 87.8154L238.283 91.9499L240.648 89.8584L236.724 87.8154Z" fill="white"/>
<path opacity="0.61" d="M239.599 96.5503C239.599 96.5503 244.887 94.5753 244.887 91.2899L246.208 106.387L240.609 107.712L239.599 96.5503Z" fill="#D6D6D6"/>
<path d="M240.585 107.697L239.599 124.07L240.915 132.616H244.863L245.518 118.514L247.82 112.593L246.179 132.616L250.782 132.946L253.05 106.382L250.452 105.397L240.585 107.697Z" fill="#333333"/>
<path d="M244.663 132.616V135.892L237.724 133.417C237.724 133.417 237.724 131.607 239.069 131.607C239.798 131.602 240.525 131.669 241.24 131.805L244.663 132.616Z" fill="#FF8C00"/>
<path d="M150.081 262.475L150.421 265.426H157.268C157.268 265.426 157.827 263.718 156.574 263.291C155.892 263.048 155.187 262.873 154.471 262.766L150.081 262.475Z" fill="#FF8C00"/>
<path d="M154.835 200.535C156.025 202.904 156.783 205.466 157.074 208.1C156.681 209.973 154.374 210.4 154.374 210.4L155 212.274L151.713 213.424L147.236 204.548C147.236 204.548 150.033 196.624 154.835 200.535Z" fill="#F0DECD"/>
<path d="M152.961 202.214C152.772 203.301 152.772 204.412 152.961 205.499C152.961 205.499 151.907 204.48 151.81 205.203C151.713 205.926 153.058 206.848 153.058 206.848L152.665 208.721L149.674 209.741C149.674 209.741 145.789 203.432 146.381 202.214C146.974 200.996 147.27 200.865 147.27 200.865C147.27 200.865 146.94 199.943 148.814 199.288C150.688 198.633 153.184 197.832 154.641 199.06C156.098 200.287 156.185 199.545 156.185 199.545C156.185 199.545 156.185 200.86 155.132 200.894C155.234 201.03 152.961 201.161 152.961 202.214Z" fill="#333333"/>
<path d="M156.02 212.308H150.494C150.494 212.308 148.159 212.793 147.828 218.388C147.629 222.209 147.629 226.039 147.828 229.86V239.032L150.494 238.144L160.361 240.347L161.333 226.905C162.354 226.737 163.326 226.35 164.184 225.771C165.041 225.192 165.763 224.435 166.3 223.551C167.017 222.473 167.468 221.24 167.616 219.954C167.765 218.668 167.607 217.364 167.155 216.151L160.279 219.766L159.915 217.825C159.537 215.724 158.359 213.85 156.627 212.599L156.02 212.308Z" fill="white"/>
<path d="M166.189 214.574L167.83 209.347L161.25 208.362L159.079 215.53L160.264 219.834L164.212 217.864L166.189 214.574Z" fill="#FCFDFF"/>
<path d="M167.5 217.568C167.392 216.465 166.931 215.427 166.184 214.608L165.858 214.938H163.785L163.455 216.219L164.212 217.301C164.665 217.68 165.225 217.909 165.813 217.957C166.402 218.005 166.991 217.869 167.5 217.568Z" fill="#F0DECD"/>
<path opacity="0.61" d="M165.25 226.837C165.25 226.837 159.986 224.867 159.986 221.576L160.414 239.396L164.264 240.25L165.25 226.837Z" fill="url(#paint2_linear)"/>
<path d="M160.264 237.882L161.25 254.255L159.968 262.8H156.02L155.365 248.698L153.058 242.778L154.704 262.8L150.101 263.13L147.799 236.566L150.426 235.581L160.264 237.882Z" fill="#333333"/>
<path d="M156.219 262.8V265.105L163.421 264.775C163.421 264.775 163.095 262.475 161.779 262.475C161.069 262.497 160.365 262.329 159.74 261.99L156.219 262.8Z" fill="#FF8C00"/>
<path d="M168.212 217.864C168.212 217.864 167.11 222.464 165.784 221.809C165.411 221.603 165.085 221.323 164.825 220.984C164.566 220.646 164.38 220.258 164.279 219.844L168.212 217.864Z" fill="url(#paint3_linear)"/>
<path d="M212.162 258.153L212.682 261.552L211.251 261.719L209.696 258.12L212.162 258.153Z" fill="#F0DECD"/>
<path d="M210.827 261.218C210.893 261.16 210.952 261.094 211.003 261.022C211.074 261.065 211.153 261.093 211.235 261.104C211.317 261.114 211.401 261.108 211.48 261.084L212.191 260.96C212.318 260.947 212.442 260.913 212.558 260.86C212.566 260.855 212.575 260.853 212.584 260.853C212.593 260.853 212.603 260.855 212.61 260.86L212.768 261.156C213.026 261.679 213.177 262.249 213.211 262.832C211.857 263.151 210.466 263.286 209.076 263.233C208.965 263.246 208.851 263.231 208.748 263.187C208.644 263.144 208.553 263.074 208.485 262.984C208.459 262.924 208.445 262.859 208.445 262.793C208.445 262.728 208.459 262.663 208.485 262.602C208.55 262.464 208.642 262.34 208.756 262.238C208.87 262.136 209.003 262.059 209.148 262.01C209.515 261.853 209.892 261.729 210.254 261.533C210.46 261.458 210.653 261.351 210.827 261.218Z" fill="#FF8C00"/>
<path d="M206.312 258.586L206.761 261.994L205.33 262.133L203.847 258.5L206.312 258.586Z" fill="#F0DECD"/>
<path d="M202.785 234.882L201.799 251.255L203.081 259.8H207.029V245.5L209 240L208.345 259.8L212.948 260.13L214 233.5L212.623 232.581L202.785 234.882Z" fill="#333333"/>
<path d="M191.851 221.535C191.393 221.263 190.9 221.053 190.387 220.91C190.306 220.875 190.219 220.86 190.132 220.866C190.045 220.872 189.961 220.898 189.886 220.943C189.806 221.018 189.754 221.117 189.738 221.225C189.657 221.572 189.685 221.936 189.819 222.266C189.24 222.584 188.633 222.849 188.007 223.058C187.876 223.08 187.751 223.129 187.64 223.203C187.529 223.276 187.435 223.371 187.363 223.483C187.323 223.6 187.32 223.725 187.353 223.844C187.387 223.962 187.455 224.068 187.549 224.147C187.739 224.3 187.966 224.402 188.207 224.443C189.781 224.81 192.342 224.443 192.714 222.562C192.795 222.151 192.647 222.084 192.318 221.841C192.166 221.731 192.013 221.631 191.851 221.535Z" fill="#F0DECD"/>
<path d="M203.693 207.004C203.332 207.719 203.101 208.494 203.011 209.291C202.97 209.689 203.033 210.092 203.195 210.458C203.356 210.825 203.61 211.143 203.932 211.381C204.126 211.474 204.309 211.589 204.475 211.725C205.048 212.317 204.39 213.391 204.724 214.155C204.853 214.406 205.071 214.6 205.336 214.698C205.601 214.796 205.893 214.791 206.154 214.685C206.413 214.568 206.642 214.394 206.826 214.177C207.009 213.96 207.141 213.704 207.213 213.429C207.361 212.874 207.427 212.3 207.409 211.725L207.466 208.302C207.546 207.542 207.428 206.774 207.123 206.073C206.917 205.715 206.617 205.422 206.255 205.225C205.893 205.027 205.483 204.934 205.072 204.956C204.223 205.08 203.979 206.331 203.693 207.004Z" fill="#F0DECD"/>
<path d="M191.77 224.08C191.77 224.08 198.323 229.937 198.79 229.937C199.258 229.937 202.162 226.257 202.162 226.257L202.401 234.592C203.211 235.068 204.054 235.486 204.924 235.843C206.355 236.425 208.134 236.964 209.693 236.797C212.879 236.506 214.281 235.437 214.281 235.437L212.321 215.802C212.321 215.802 208.611 213.133 207.342 213.539C206.435 213.702 205.506 213.702 204.599 213.539C202.768 213.296 200.894 215.802 200.894 215.802L198.461 223.813L192.738 221.779C192.363 222.019 192.069 222.368 191.896 222.779C191.723 223.19 191.679 223.643 191.77 224.08Z" fill="white"/>
<path d="M202.968 203.318C202.925 202.888 203.026 202.455 203.254 202.087C203.698 201.471 204.595 201.414 205.334 201.581C205.842 201.721 206.334 201.913 206.803 202.154C207.145 202.297 207.519 202.345 207.886 202.292C208.86 202.279 209.805 202.631 210.533 203.28C211.525 204.235 211.763 205.624 211.863 206.932C211.973 208.412 211.305 209.634 210.342 210.751C209.507 211.735 208 212.699 206.917 211.458C206.438 210.825 206.22 210.032 206.307 209.243C206.568 209.222 206.816 209.118 207.014 208.946C207.212 208.774 207.351 208.544 207.409 208.288C207.448 208.129 207.442 207.962 207.391 207.807C207.339 207.651 207.244 207.513 207.118 207.41C207.04 207.362 206.953 207.33 206.863 207.316C206.773 207.302 206.681 207.306 206.592 207.328C206.503 207.349 206.42 207.389 206.346 207.443C206.273 207.497 206.211 207.565 206.164 207.644C206.136 207.693 206.113 207.746 206.097 207.801C205.941 207.487 205.829 207.153 205.763 206.808C205.634 206.479 205.219 206.192 204.948 206.412C204.79 206.541 204.695 206.813 204.495 206.77C204.428 206.746 204.37 206.703 204.328 206.646C203.932 206.265 203.598 205.825 203.336 205.343C203.097 204.771 202.973 204.158 202.968 203.538C202.973 203.476 202.968 203.395 202.968 203.318Z" fill="#FF8C00"/>
<path d="M215.846 202.574C216.535 202.489 217.233 202.618 217.846 202.944C218.459 203.269 218.958 203.775 219.275 204.393C220.033 205.944 219.49 207.772 219.366 209.496C219.252 210.094 219.346 210.712 219.63 211.25C219.914 211.788 220.373 212.213 220.93 212.456C222.146 213.186 223.539 213.678 224.512 214.714C225.276 215.566 225.727 216.654 225.79 217.797C225.853 218.276 225.77 218.762 225.552 219.191C225.338 219.507 225.06 219.774 224.736 219.974C223.84 220.627 222.823 221.094 221.744 221.348C220.666 221.603 219.547 221.639 218.455 221.454C216.289 221.01 214.339 219.33 213.881 217.158C213.404 214.866 214.563 212.589 215.002 210.293C215.085 210.024 215.112 209.741 215.081 209.461C215.051 209.181 214.964 208.91 214.825 208.665C214.463 208.188 213.785 208.064 213.266 207.753C210.413 206.078 213.757 202.87 215.846 202.574Z" fill="#FF8C00"/>
<path d="M211.792 204.803H211.835C212.433 204.803 212.917 205.288 212.917 205.887V205.93C212.917 206.528 212.433 207.013 211.835 207.013H211.792C211.194 207.013 210.709 206.528 210.709 205.93V205.887C210.709 205.288 211.194 204.803 211.792 204.803Z" fill="#00A85F"/>
<path d="M204.915 261.627C204.983 261.569 205.043 261.503 205.096 261.431C205.167 261.475 205.245 261.505 205.327 261.517C205.409 261.529 205.493 261.524 205.573 261.503L206.289 261.398C206.416 261.384 206.54 261.35 206.656 261.297H206.708L206.856 261.598C207.103 262.127 207.243 262.7 207.266 263.283C205.905 263.575 204.511 263.679 203.122 263.594C203.011 263.607 202.898 263.59 202.796 263.544C202.693 263.499 202.605 263.427 202.54 263.336C202.514 263.276 202.5 263.211 202.5 263.145C202.5 263.079 202.514 263.014 202.54 262.954C202.608 262.818 202.703 262.697 202.818 262.598C202.934 262.499 203.068 262.423 203.212 262.376C203.584 262.228 203.966 262.109 204.328 261.937C204.537 261.861 204.734 261.756 204.915 261.627Z" fill="#FF8C00"/>
</g>
<defs>
<linearGradient id="paint0_linear" x1="186.044" y1="199.647" x2="186.044" y2="274.127" gradientUnits="userSpaceOnUse">
<stop stop-opacity="0.4"/>
<stop offset="1" stop-color="white" stop-opacity="0"/>
</linearGradient>
<linearGradient id="paint1_linear" x1="283.127" y1="280.421" x2="184.199" y2="14.7492" gradientUnits="userSpaceOnUse">
<stop offset="0.58"/>
<stop offset="0.78" stop-opacity="0.16"/>
</linearGradient>
<linearGradient id="paint2_linear" x1="1784.92" y1="1573.34" x2="1598.15" y2="1579.91" gradientUnits="userSpaceOnUse">
<stop offset="0.36" stop-color="#00272E"/>
<stop offset="1" stop-color="#69B9EB" stop-opacity="0"/>
</linearGradient>
<linearGradient id="paint3_linear" x1="1327.71" y1="2015.03" x2="1308.8" y2="2064.35" gradientUnits="userSpaceOnUse">
<stop stop-opacity="0"/>
<stop offset="0.91" stop-opacity="0.8"/>
<stop offset="1"/>
</linearGradient>
<clipPath id="clip0">
<rect width="400" height="275" fill="white" transform="translate(0.5 0.5)"/>
</clipPath>
</defs>
</svg>
